  <svg version="1.0" xmlns="http://www.w3.org/2000/svg"  width="600.000000pt" height="214.000000pt" viewBox="0 0 600.000000 214.000000"  preserveAspectRatio="xMidYMid meet"> <g transform="translate(0.000000,214.000000) scale(0.100000,-0.100000)" fill="#000000" stroke="none"> <path d="M406 2111 c16 -16 31 -27 33 -25 6 6 -41 54 -52 54 -6 0 3 -13 19 -29z"/> <path d="M792 2120 c7 -10 14 -18 15 -16 6 6 -9 36 -18 36 -5 0 -4 -9 3 -20z"/> <path d="M1190 2118 c11 -12 23 -18 27 -15 3 4 1 7 -6 7 -8 0 -11 7 -7 15 4 10 -1 15 -15 15 -20 0 -20 0 1 -22z"/> <path d="M1597 2112 c15 -15 30 -24 31 -19 4 8 -38 46 -51 47 -4 0 5 -12 20 -28z"/> <path d="M2215 2130 c3 -5 8 -10 11 -10 2 0 4 5 4 10 0 6 -5 10 -11 10 -5 0 -7 -4 -4 -10z"/> <path d="M3015 2130 c3 -5 8 -10 11 -10 2 0 4 5 4 10 0 6 -5 10 -11 10 -5 0 -7 -4 -4 -10z"/> <path d="M3426 2133 c6 -4 14 -15 17 -23 5 -11 6 -9 4 4 -1 11 -9 21 -17 23 -10 3 -11 2 -4 -4z"/> <path d="M3848 2107 c18 -18 30 -36 26 -39 -3 -4 3 -9 14 -12 10 -4 24 -16 30 -29 7 -13 11 -16 11 -7 0 8 -20 35 -44 59 -25 25 -45 49 -45 53 0 4 -5 8 -12 8 -7 0 3 -15 20 -33z"/> <path d="M4462 2126 c7 -8 15 -12 17 -11 5 6 -10 25 -20 25 -5 0 -4 -6 3 -14z"/> <path d="M4866 2126 c21 -15 30 -14 19 3 -3 6 -14 11 -23 11 -13 0 -13 -2 4 -14z"/> <path d="M5262 2126 c7 -8 15 -12 17 -11 5 6 -10 25 -20 25 -5 0 -4 -6 3 -14z"/> <path d="M5655 2130 c3 -5 8 -10 11 -10 2 0 4 5 4 10 0 6 -5 10 -11 10 -5 0 -7 -4 -4 -10z"/> <path d="M1732 2091 c13 -16 29 -32 37 -36 12 -5 12 -3 0 12 -22 28 -49 53 -55 53 -3 0 5 -13 18 -29z"/> <path d="M2762 2100 c7 -11 16 -20 20 -20 5 0 3 9 -4 20 -7 11 -16 20 -20 20 -5 0 -3 -9 4 -20z"/> <path d="M3150 2113 c0 -13 29 -38 35 -31 3 3 -4 13 -15 23 -11 10 -20 13 -20 8z"/> <path d="M3566 2108 c12 -22 47 -58 56 -58 5 0 -2 11 -16 24 -15 13 -26 28 -26 35 0 6 -5 11 -11 11 -5 0 -7 -6 -3 -12z"/> <path d="M5001 2103 c17 -22 50 -53 57 -53 5 0 -15 26 -40 52 -23 23 -35 23 -17 1z"/> <path d="M5401 2103 c21 -28 50 -55 54 -51 4 4 -53 68 -61 68 -4 0 0 -8 7 -17z"/> <path d="M5701 2086 c12 -20 25 -36 31 -36 5 0 0 13 -12 30 -31 43 -43 47 -19 6z"/> <path d="M5801 2103 c17 -22 50 -53 57 -53 8 0 -53 69 -62 69 -5 1 -2 -7 5 -16z"/> <path d="M2660 2095 c0 -8 4 -15 10 -15 5 0 7 7 4 15 -4 8 -8 15 -10 15 -2 0 -4 -7 -4 -15z"/> <path d="M151 2089 c-1 -19 26 -45 36 -35 3 3 1 6 -6 6 -6 0 -16 10 -21 23 -6 15 -9 17 -9 6z"/> <path d="M2265 2090 c3 -5 8 -10 11 -10 2 0 4 5 4 10 0 6 -5 10 -11 10 -5 0 -7 -4 -4 -10z"/> <path d="M3460 2093 c0 -6 3 -13 8 -15 4 -1 19 -18 35 -36 15 -19 27 -29 27 -23 0 5 -16 27 -35 48 -19 21 -35 33 -35 26z"/> <path d="M3990 2088 c0 -9 7 -22 17 -29 15 -13 15 -12 3 11 -17 34 -20 36 -20 18z"/> <path d="M4500 2094 c1 -12 70 -90 70 -78 0 5 -16 27 -35 48 -19 22 -35 35 -35 30z"/> <path d="M551 2085 c0 -5 6 -19 14 -29 8 -11 15 -15 15 -10 0 6 -7 19 -15 30 -8 10 -14 15 -14 9z"/> <path d="M950 2081 c0 -10 29 -36 34 -30 1 2 -6 12 -16 22 -10 9 -18 13 -18 8z"/> <path d="M1356 2077 c3 -10 9 -15 12 -12 3 3 0 11 -7 18 -10 9 -11 8 -5 -6z"/> <path d="M1942 2056 c-18 -19 -28 -37 -23 -40 5 -4 19 7 31 24 26 37 43 38 69 3 11 -16 21 -23 21 -17 0 13 -45 64 -57 64 -5 0 -23 -15 -41 -34z"/> <path d="M2371 2087 c2 -1 15 -11 28 -22 l24 -20 -14 23 c-8 12 -20 22 -28 22 -8 0 -12 -1 -10 -3z"/> <path d="M4207 2083 c-4 -3 -7 -13 -7 -22 0 -12 2 -11 13 3 12 16 14 16 26 2 8 -9 17 -16 22 -16 5 0 0 9 -11 20 -21 21 -32 24 -43 13z"/> <path d="M1175 2022 c-36 -69 -47 -185 -22 -243 15 -35 98 -152 104 -146 2 2 -1 26 -6 53 -5 27 -14 115 -21 197 -6 81 -15 158 -18 172 -7 23 -9 20 -37 -33z m21 -47 c-3 -20 -1 -48 4 -63 5 -15 11 -64 14 -109 4 -67 2 -80 -8 -70 -19 19 -35 52 -35 73 0 10 -3 40 -7 66 -5 33 -1 59 11 92 10 25 19 46 21 46 3 0 2 -16 0 -35z"/> <path d="M1234 2055 c9 -50 36 -307 38 -357 3 -53 11 -53 35 0 11 26 17 67 17 132 1 88 -1 99 -31 155 -17 33 -39 69 -48 80 -15 19 -16 19 -11 -10z m60 -136 c9 -47 6 -151 -3 -119 -14 44 -22 150 -13 150 5 0 12 -14 16 -31z"/> <path d="M3070 2072 c0 -12 19 -26 26 -19 2 2 -2 10 -11 17 -9 8 -15 8 -15 2z"/> <path d="M451 2059 c8 -8 21 -23 28 -34 11 -19 12 -19 9 -1 -2 10 -14 25 -28 33 -17 10 -20 11 -9 2z"/> <path d="M840 2060 c8 -5 20 -10 25 -10 6 0 3 5 -5 10 -8 5 -19 10 -25 10 -5 0 -3 -5 5 -10z"/> <path d="M1643 2058 c9 -7 24 -22 32 -33 15 -19 16 -19 4 5 -12 26 -27 40 -43 40 -6 0 -2 -6 7 -12z"/> <path d="M2280 2060 c0 -5 5 -10 11 -10 5 0 7 5 4 10 -3 6 -8 10 -11 10 -2 0 -4 -4 -4 -10z"/> <path d="M2680 2055 c7 -9 15 -13 17 -11 7 7 -7 26 -19 26 -6 0 -6 -6 2 -15z"/> <path d="M3197 2059 c7 -7 15 -10 18 -7 3 3 -2 9 -12 12 -14 6 -15 5 -6 -5z"/> <path d="M4647 2059 c7 -7 15 -10 18 -7 3 3 -2 9 -12 12 -14 6 -15 5 -6 -5z"/> <path d="M4910 2066 c0 -2 7 -7 16 -10 8 -3 12 -2 9 4 -6 10 -25 14 -25 6z"/> <path d="M5327 2059 c7 -7 15 -10 18 -7 3 3 -2 9 -12 12 -14 6 -15 5 -6 -5z"/> <path d="M4173 2043 c-7 -3 -13 -12 -13 -21 0 -15 2 -15 17 1 18 18 16 27 -4 20z"/> <path d="M76 2027 c3 -10 9 -15 12 -12 3 3 0 11 -7 18 -10 9 -11 8 -5 -6z"/> <path d="M190 2036 c0 -11 59 -71 64 -65 3 2 -11 20 -30 38 -19 19 -34 31 -34 27z"/> <path d="M590 2029 c0 -5 5 -7 10 -4 6 3 10 8 10 11 0 2 -4 4 -10 4 -5 0 -10 -5 -10 -11z"/> <path d="M870 2031 c0 -5 5 -13 10 -16 6 -3 10 -2 10 4 0 5 -4 13 -10 16 -5 3 -10 2 -10 -4z"/> <path d="M1390 2030 c0 -5 5 -10 11 -10 5 0 7 5 4 10 -3 6 -8 10 -11 10 -2 0 -4 -4 -4 -10z"/> <path d="M2310 2035 c0 -5 5 -17 10 -25 5 -8 10 -10 10 -5 0 6 -5 17 -10 25 -5 8 -10 11 -10 5z"/> <path d="M2430 2031 c0 -5 7 -15 17 -22 15 -13 15 -12 4 9 -12 23 -21 28 -21 13z"/> <path d="M2710 2031 c0 -6 4 -13 10 -16 6 -3 7 1 4 9 -7 18 -14 21 -14 7z"/> <path d="M2838 2011 c9 -17 23 -33 30 -36 8 -3 4 8 -8 25 -29 41 -43 48 -22 11z"/> <path d="M3110 2035 c0 -5 5 -17 10 -25 5 -8 10 -10 10 -5 0 6 -5 17 -10 25 -5 8 -10 11 -10 5z"/> <path d="M3236 2015 c9 -14 18 -25 20 -25 2 0 -2 11 -8 25 -6 14 -15 25 -20 25 -5 0 -1 -11 8 -25z"/> <path d="M3630 2034 c0 -7 60 -64 67 -64 3 0 -8 15 -24 34 -26 32 -43 44 -43 30z"/> <path d="M4030 2034 c0 -3 7 -12 15 -20 16 -17 18 -14 9 10 -6 15 -24 23 -24 10z"/> <path d="M4265 2030 c3 -5 11 -10 16 -10 6 0 7 5 4 10 -3 6 -11 10 -16 10 -6 0 -7 -4 -4 -10z"/> <path d="M4950 2031 c0 -6 4 -13 10 -16 6 -3 7 1 4 9 -7 18 -14 21 -14 7z"/> <path d="M5077 2016 c10 -13 19 -23 21 -21 5 5 -22 45 -31 45 -4 0 0 -11 10 -24z"/> <path d="M5357 2019 c4 -13 8 -18 11 -10 2 7 -1 18 -6 23 -8 8 -9 4 -5 -13z"/> <path d="M5750 2031 c0 -6 4 -13 10 -16 6 -3 7 1 4 9 -7 18 -14 21 -14 7z"/> <path d="M5871 2023 c21 -29 59 -64 59 -56 0 4 -12 19 -25 32 -14 13 -25 27 -25 32 0 5 -5 9 -11 9 -8 0 -7 -6 2 -17z"/> <path d="M610 2010 c0 -5 5 -10 11 -10 5 0 7 5 4 10 -3 6 -8 10 -11 10 -2 0 -4 -4 -4 -10z"/> <path d="M4690 2004 c0 -8 5 -12 10 -9 6 4 8 11 5 16 -9 14 -15 11 -15 -7z"/> <path d="M4180 2004 c0 -10 31 -36 37 -31 3 3 -2 13 -10 22 -16 15 -27 19 -27 9z"/> <path d="M1830 1987 c0 -10 8 -17 18 -17 9 0 13 4 7 8 -5 4 -13 11 -17 16 -5 5 -8 2 -8 -7z"/> <path d="M115 1980 c3 -5 11 -10 16 -10 6 0 7 5 4 10 -3 6 -11 10 -16 10 -6 0 -7 -4 -4 -10z"/> <path d="M635 1980 c3 -5 11 -10 16 -10 6 0 7 5 4 10 -3 6 -11 10 -16 10 -6 0 -7 -4 -4 -10z"/> <path d="M1037 1979 c7 -7 15 -10 18 -7 3 3 -2 9 -12 12 -14 6 -15 5 -6 -5z"/> <path d="M1710 1987 c0 -11 60 -71 65 -65 3 2 -11 20 -30 38 -19 19 -35 31 -35 27z"/> <path d="M1947 1979 c7 -7 15 -10 18 -7 3 3 -2 9 -12 12 -14 6 -15 5 -6 -5z"/> <path d="M2361 1975 c22 -31 79 -89 83 -84 2 2 -19 27 -47 54 -28 28 -44 41 -36 30z"/> <path d="M2476 1977 c3 -10 9 -15 12 -12 3 3 0 11 -7 18 -10 9 -11 8 -5 -6z"/> <path d="M2771 1955 c19 -19 37 -35 41 -35 5 0 -6 16 -23 35 -18 19 -36 35 -41 35 -5 0 5 -16 23 -35z"/> <path d="M3150 1984 c0 -5 14 -22 30 -37 17 -16 30 -25 30 -20 0 5 -13 22 -30 38 -16 16 -30 25 -30 19z"/> <path d="M3275 1980 c-3 -5 1 -10 10 -10 9 0 13 5 10 10 -3 6 -8 10 -10 10 -2 0 -7 -4 -10 -10z"/> <path d="M3960 1980 c0 -5 5 -10 11 -10 5 0 7 5 4 10 -3 6 -8 10 -11 10 -2 0 -4 -4 -4 -10z"/> <path d="M4315 1980 c3 -5 8 -10 11 -10 2 0 4 5 4 10 0 6 -5 10 -11 10 -5 0 -7 -4 -4 -10z"/> <path d="M4580 1986 c0 -2 7 -7 16 -10 8 -3 12 -2 9 4 -6 10 -25 14 -25 6z"/> <path d="M4710 1980 c0 -6 7 -10 15 -10 8 0 15 2 15 4 0 2 -7 6 -15 10 -8 3 -15 1 -15 -4z"/> <path d="M5413 1955 c31 -36 44 -45 31 -22 -11 20 -47 57 -55 57 -4 0 7 -16 24 -35z"/> <path d="M5517 1979 c7 -7 15 -10 18 -7 3 3 -2 9 -12 12 -14 6 -15 5 -6 -5z"/> <path d="M930 1965 c7 -8 17 -15 22 -15 5 0 3 7 -6 15 -8 8 -18 15 -22 15 -3 0 -1 -7 6 -15z"/> <path d="M1341 1968 c-1 -10 7 -26 17 -36 9 -10 32 -35 50 -55 17 -21 32 -33 32 -28 0 6 -11 21 -25 35 -14 14 -25 29 -25 34 0 6 -7 12 -15 16 -9 3 -20 16 -25 28 -7 18 -9 19 -9 6z"/> <path d="M5807 1963 c10 -10 24 -25 31 -33 12 -13 13 -13 6 0 -11 23 -36 50 -46 50 -5 0 -1 -8 9 -17z"/> <path d="M3587 1964 c-7 -12 60 -94 77 -94 6 1 1 9 -11 19 -13 11 -23 24 -23 30 0 6 -5 11 -10 11 -6 0 -14 10 -19 22 -4 12 -10 17 -14 12z"/> <path d="M270 1942 c6 -13 14 -21 18 -18 3 4 -2 14 -12 24 -18 16 -18 16 -6 -6z"/> <path d="M1460 1955 c0 -12 124 -145 134 -145 4 0 -6 15 -23 33 -16 17 -48 52 -70 77 -23 25 -41 41 -41 35z"/> <path d="M1865 1940 c10 -11 20 -18 23 -15 7 6 -18 35 -31 35 -5 0 -2 -9 8 -20z"/> <path d="M2100 1955 c1 -15 37 -55 49 -55 6 0 11 -4 11 -8 0 -12 39 -56 45 -51 2 3 -21 31 -51 64 -29 33 -54 55 -54 50z"/> <path d="M3312 1940 c7 -11 17 -20 22 -20 5 0 1 9 -9 20 -10 11 -20 20 -22 20 -2 0 2 -9 9 -20z"/> <path d="M3700 1953 c0 -13 29 -38 35 -31 3 3 -4 13 -15 23 -11 10 -20 13 -20 8z"/> <path d="M3990 1951 c0 -5 22 -33 50 -63 27 -29 50 -48 50 -43 -1 13 -100 119 -100 106z"/> <path d="M4230 1953 c0 -14 43 -63 55 -63 6 0 6 3 0 8 -6 4 -21 20 -33 36 -12 16 -22 24 -22 19z"/> <path d="M4340 1953 c1 -14 34 -49 53 -56 12 -4 7 6 -14 28 -35 37 -39 40 -39 28z"/> <path d="M4625 1950 c3 -5 8 -10 11 -10 2 0 4 5 4 10 0 6 -5 10 -11 10 -5 0 -7 -4 -4 -10z"/> <path d="M4740 1952 c0 -5 7 -15 15 -22 8 -7 15 -8 15 -2 0 5 -7 15 -15 22 -8 7 -15 8 -15 2z"/> <path d="M5140 1957 c0 -5 9 -20 20 -34 11 -14 20 -21 20 -15 0 12 -39 60 -40 49z"/> <path d="M5536 1945 c4 -8 8 -15 10 -15 2 0 4 7 4 15 0 8 -4 15 -10 15 -5 0 -7 -7 -4 -15z"/> <path d="M1070 1941 c0 -5 5 -13 10 -16 6 -3 10 -2 10 4 0 5 -4 13 -10 16 -5 3 -10 2 -10 -4z"/> <path d="M1996 1937 c3 -10 9 -15 12 -12 3 3 0 11 -7 18 -10 9 -11 8 -5 -6z"/> <path d="M2900 1946 c0 -2 8 -10 18 -17 15 -13 16 -12 3 4 -13 16 -21 21 -21 13z"/> <path d="M160 1937 c0 -3 18 -25 40 -48 22 -23 40 -38 40 -33 0 6 -18 28 -40 49 -22 21 -40 36 -40 32z"/> <path d="M960 1937 c0 -11 39 -52 44 -46 2 2 -7 15 -20 29 -13 13 -24 21 -24 17z"/> <path d="M4120 1930 c0 -5 5 -10 10 -10 6 0 10 5 10 10 0 6 -4 10 -10 10 -5 0 -10 -4 -10 -10z"/> <path d="M680 1921 c0 -3 26 -26 58 -51 172 -133 396 -308 499 -392 40 -32 75 -58 78 -58 23 0 -62 173 -120 243 -82 101 -237 199 -360 227 -27 7 -74 18 -102 25 -29 7 -53 9 -53 6z m147 -53 c13 0 20 -5 17 -10 -3 -5 2 -8 12 -7 11 2 33 -5 51 -14 18 -9 39 -17 48 -17 10 0 13 -5 9 -12 -4 -7 -3 -8 4 -4 15 9 55 -18 44 -29 -4 -5 -1 -5 6 -1 8 5 19 1 28 -10 9 -11 12 -12 8 -4 -4 8 7 2 26 -15 64 -56 120 -118 120 -132 0 -8 5 -11 10 -8 14 9 12 -9 -3 -24 -10 -10 -9 -11 5 -6 11 4 20 -1 28 -15 6 -12 9 -24 6 -27 -3 -3 1 -12 9 -20 8 -8 15 -19 15 -24 0 -6 -7 -4 -15 4 -8 9 -20 17 -27 19 -10 4 -10 9 2 24 14 18 14 18 -2 5 -14 -11 -21 -11 -33 -1 -8 7 -12 16 -9 21 3 5 -2 9 -11 9 -10 0 -31 15 -48 33 -17 17 -27 26 -23 20 5 -9 2 -11 -8 -7 -9 3 -12 12 -9 21 4 11 2 14 -5 9 -14 -8 -84 42 -76 55 3 5 -3 9 -14 9 -10 0 -32 12 -48 28 -16 15 -49 42 -73 60 -25 17 -41 32 -35 32 5 1 -2 7 -16 14 -14 8 -29 12 -34 9 -5 -4 -6 -1 -2 5 3 6 1 12 -6 15 -7 2 -4 2 7 -1 11 -2 30 -4 42 -4z"/> <path d="M5566 1915 c4 -8 8 -15 10 -15 2 0 4 7 4 15 0 8 -4 15 -10 15 -5 0 -7 -7 -4 -15z"/> <path d="M5965 1920 c3 -5 8 -10 11 -10 2 0 4 5 4 10 0 6 -5 10 -11 10 -5 0 -7 -4 -4 -10z"/> <path d="M580 1912 c0 -4 9 -15 20 -25 11 -9 20 -13 20 -9 0 4 -9 15 -20 25 -11 9 -20 13 -20 9z"/> <path d="M5460 1913 c0 -5 9 -18 20 -28 11 -10 20 -16 20 -13 0 3 -9 15 -20 28 -11 13 -20 19 -20 13z"/> <path d="M305 1900 c3 -5 11 -10 16 -10 6 0 7 5 4 10 -3 6 -11 10 -16 10 -6 0 -7 -4 -4 -10z"/> <path d="M1787 1899 c7 -7 15 -10 18 -7 3 3 -2 9 -12 12 -14 6 -15 5 -6 -5z"/> <path d="M1912 1890 c13 -20 28 -27 28 -12 0 10 -22 32 -32 32 -5 0 -3 -9 4 -20z"/> <path d="M3240 1878 c16 -17 32 -30 34 -27 7 6 -42 59 -54 59 -5 0 4 -14 20 -32z"/> <path d="M3776 1865 c21 -24 45 -47 53 -50 9 -4 5 6 -10 22 -15 15 -35 38 -45 51 -10 12 -22 22 -27 22 -4 0 9 -20 29 -45z"/> <path d="M4150 1901 c0 -10 19 -25 25 -20 1 2 -3 10 -11 17 -8 7 -14 8 -14 3z"/> <path d="M4667 1899 c7 -7 15 -10 18 -7 3 3 -2 9 -12 12 -14 6 -15 5 -6 -5z"/> <path d="M4806 1875 c14 -19 31 -35 36 -35 5 0 -4 16 -19 35 -36 46 -52 46 -17 0z"/> <path d="M5077 1886 c10 -13 27 -30 38 -37 19 -11 19 -11 5 7 -17 22 -51 54 -57 54 -2 0 4 -11 14 -24z"/> <path d="M660 1896 c0 -24 26 -118 45 -160 93 -210 273 -322 545 -339 l64 -4 -28 21 c-15 12 -106 82 -201 156 -95 74 -187 146 -205 160 -19 14 -56 43 -84 65 -103 82 -136 107 -136 101z m72 -84 c8 4 168 -122 168 -133 0 -5 5 -9 11 -9 11 0 90 -59 119 -89 9 -9 25 -21 35 -28 11 -6 19 -16 17 -22 -1 -6 1 -10 5 -9 11 2 46 -14 59 -26 34 -33 63 -54 67 -50 2 3 7 -2 10 -9 4 -12 -4 -14 -40 -12 -25 1 -49 9 -54 16 -6 9 -9 10 -9 2 0 -14 -90 9 -127 33 -13 8 -23 12 -23 9 0 -4 -7 1 -16 9 -8 9 -22 16 -30 16 -9 0 -43 29 -77 64 -66 69 -120 135 -99 123 7 -5 12 -3 12 3 0 6 -6 13 -14 16 -13 5 -31 49 -28 67 1 4 -2 7 -8 7 -11 0 -14 33 -3 44 4 4 10 0 13 -9 3 -9 9 -15 12 -13z"/> <path d="M784 1720 c0 -13 4 -16 10 -10 7 7 7 13 0 20 -6 6 -10 3 -10 -10z"/> <path d="M2040 1889 c0 -8 9 -22 20 -32 11 -9 20 -14 20 -11 0 3 -9 17 -20 31 -12 15 -20 20 -20 12z"/> <path d="M2550 1898 c0 -10 40 -51 45 -46 3 2 -6 15 -20 28 -14 13 -25 21 -25 18z"/> <path d="M2830 1896 c0 -2 8 -10 18 -17 15 -13 16 -12 3 4 -13 16 -21 21 -21 13z"/> <path d="M3365 1880 c10 -11 20 -20 22 -20 2 0 -2 9 -9 20 -7 11 -17 20 -22 20 -5 0 -1 -9 9 -20z"/> <path d="M5190 1897 c0 -2 9 -14 20 -27 22 -25 26 -20 10 11 -9 16 -30 27 -30 16z"/> <path d="M5876 1885 c4 -9 16 -21 28 -27 19 -10 19 -9 -3 16 -28 30 -33 32 -25 11z"/> <path d="M330 1870 c0 -5 5 -10 10 -10 6 0 10 5 10 10 0 6 -4 10 -10 10 -5 0 -10 -4 -10 -10z"/> <path d="M1025 1860 c10 -11 20 -18 23 -15 7 6 -18 35 -31 35 -5 0 -2 -9 8 -20z"/> <path d="M4410 1874 c0 -7 27 -34 34 -34 4 0 1 9 -6 20 -12 19 -28 27 -28 14z"/> <path d="M5610 1871 c0 -11 29 -35 35 -29 2 2 -4 12 -15 21 -11 9 -20 13 -20 8z"/> <path d="M1817 1859 c7 -7 15 -10 18 -7 3 3 -2 9 -12 12 -14 6 -15 5 -6 -5z"/> <path d="M5510 1861 c0 -6 4 -13 10 -16 6 -3 7 1 4 9 -7 18 -14 21 -14 7z"/> <path d="M2870 1853 c0 -4 5 -15 10 -23 8 -13 10 -13 10 2 0 9 -4 20 -10 23 -5 3 -10 3 -10 -2z"/> <path d="M3675 1850 c3 -5 8 -10 11 -10 2 0 4 5 4 10 0 6 -5 10 -11 10 -5 0 -7 -4 -4 -10z"/> <path d="M4710 1851 c0 -5 5 -13 10 -16 6 -3 10 -2 10 4 0 5 -4 13 -10 16 -5 3 -10 2 -10 -4z"/> <path d="M370 1830 c13 -11 25 -20 28 -20 3 0 -3 9 -13 20 -10 11 -23 20 -28 20 -6 0 0 -9 13 -20z"/> <path d="M2990 1846 c0 -2 7 -9 15 -16 13 -11 14 -10 9 4 -5 14 -24 23 -24 12z"/> <path d="M5247 1811 c-37 -56 -67 -151 -67 -214 0 -29 10 -82 22 -118 l22 -64 8 45 c12 73 48 383 44 387 -2 2 -15 -14 -29 -36z m-6 -74 c-10 -9 -11 -8 -5 6 3 10 9 15 12 12 3 -3 0 -11 -7 -18z m-7 -100 c-8 -86 -19 -115 -29 -75 -4 14 -2 35 4 46 6 11 8 35 4 53 -4 21 -3 30 5 26 6 -5 8 1 4 15 -3 14 -2 19 6 14 8 -5 10 -29 6 -79z"/> <path d="M5297 1798 c-3 -29 -13 -120 -22 -203 -9 -82 -18 -158 -21 -167 -10 -32 11 -19 48 30 47 62 57 83 67 139 12 60 -2 139 -35 201 -13 25 -26 47 -28 49 -2 2 -6 -20 -9 -49z m42 -66 c14 -71 2 -193 -19 -200 -6 -2 -7 -8 -4 -14 4 -6 1 -9 -7 -6 -7 2 -15 19 -16 37 -2 18 0 30 5 27 4 -2 5 15 4 39 -4 46 16 160 26 150 3 -3 8 -18 11 -33z m-44 -231 c3 -5 2 -12 -3 -15 -5 -3 -9 1 -9 9 0 17 3 19 12 6z"/> <path d="M4100 1831 c0 -6 4 -13 10 -16 6 -3 7 1 4 9 -7 18 -14 21 -14 7z"/> <path d="M285 1797 c15 -21 30 -35 33 -32 3 3 -9 20 -27 38 l-34 32 28 -38z"/> <path d="M1476 1805 c9 -14 21 -25 27 -25 6 0 0 11 -13 25 -13 14 -25 25 -27 25 -2 0 4 -11 13 -25z"/> <path d="M1820 1816 c-57 -16 -126 -60 -179 -114 -23 -23 -46 -42 -51 -42 -4 0 -23 -24 -41 -52 -47 -76 -59 -98 -75 -142 -46 -127 -89 -164 -230 -195 -158 -36 -199 -53 -248 -105 -16 -17 -26 -24 -22 -16 4 8 -2 4 -13 -10 -131 -158 -44 -345 175 -376 45 -7 146 16 209 46 85 41 235 195 218 223 -3 6 -1 7 5 3 10 -6 40 35 31 43 -2 2 8 13 24 24 l27 21 28 -21 c45 -33 48 -60 17 -133 -47 -112 -46 -169 5 -195 39 -20 69 -19 131 5 55 21 99 55 99 77 0 8 3 12 8 10 4 -3 8 13 9 34 2 56 24 143 33 129 4 -7 9 0 13 18 7 35 52 66 117 81 24 5 45 9 47 8 2 -2 -37 -154 -57 -217 -18 -62 -13 -114 14 -139 34 -32 102 -39 151 -15 47 22 122 121 131 172 3 20 14 68 25 106 10 39 17 72 15 74 -5 4 -30 -79 -46 -152 -6 -27 -15 -56 -21 -65 -8 -12 -9 -9 -4 14 20 101 50 190 71 212 13 14 24 29 24 33 0 12 53 67 83 85 24 15 32 16 52 5 33 -18 37 -35 14 -63 -10 -14 -19 -29 -19 -34 0 -4 -19 -21 -43 -36 -39 -26 -40 -27 -12 -3 17 14 25 26 19 26 -15 0 -59 -49 -78 -87 -50 -100 15 -235 129 -268 52 -15 62 -16 126 -1 72 16 143 57 172 98 16 23 16 23 16 2 2 -47 107 -114 181 -114 70 0 196 56 251 111 l39 39 0 -34 c0 -26 8 -41 35 -65 20 -17 47 -34 61 -37 37 -10 114 0 155 20 43 20 129 103 129 125 1 9 10 -2 21 -24 44 -88 124 -135 232 -135 59 0 147 25 199 57 21 13 41 23 45 23 5 1 24 14 43 30 38 33 50 37 50 15 0 -23 60 -85 98 -100 44 -19 138 -19 188 -1 72 25 142 83 144 119 0 5 -24 -12 -54 -37 -53 -46 -73 -57 -61 -33 4 6 1 5 -7 -3 -39 -44 -190 -53 -194 -11 -3 21 -4 22 -23 12 -16 -9 -24 -3 -54 43 -19 29 -42 53 -51 53 -8 0 -13 -4 -11 -8 7 -10 -25 -20 -37 -12 -6 3 -8 1 -5 -4 9 -14 -40 -46 -55 -37 -7 4 -8 3 -4 -4 7 -12 -32 -38 -53 -33 -7 1 -10 -2 -7 -7 3 -5 -6 -7 -21 -4 -16 3 -24 1 -20 -5 10 -16 -129 -39 -147 -24 -7 6 -18 11 -22 10 -5 -1 -20 -1 -34 0 -21 1 -22 3 -10 12 12 9 10 10 -8 6 -23 -6 -24 -5 -5 16 18 21 18 21 -6 4 -23 -16 -25 -15 -48 9 -13 14 -21 30 -18 35 3 5 -2 6 -11 2 -14 -5 -16 -2 -12 20 3 15 1 24 -4 21 -5 -3 -15 -1 -23 6 -11 9 -22 3 -53 -30 -26 -26 -42 -36 -45 -28 -4 9 -6 8 -6 -3 -1 -9 -11 -24 -23 -35 -19 -16 -20 -16 -9 -1 12 15 12 17 -3 11 -9 -3 -16 -11 -16 -18 0 -6 -12 -13 -27 -14 -15 -1 -29 -6 -32 -10 -5 -7 -29 -8 -79 -3 -7 0 -10 5 -7 11 3 5 0 7 -9 4 -16 -6 -58 25 -50 38 3 4 0 8 -6 8 -7 0 -9 8 -5 21 5 16 4 19 -6 14 -9 -6 -11 -2 -7 12 3 13 1 20 -6 18 -27 -5 -52 -20 -64 -37 -7 -10 -19 -18 -25 -18 -7 0 -23 -12 -36 -25 -16 -18 -30 -24 -44 -19 -13 4 -17 2 -13 -5 4 -6 2 -12 -3 -12 -26 -3 -30 -4 -37 -11 -9 -10 -90 -10 -122 -2 -15 5 -21 12 -17 22 4 12 3 13 -10 2 -14 -12 -54 -6 -42 7 4 3 -5 15 -19 26 -16 12 -23 25 -19 35 3 9 3 13 -1 9 -4 -4 -13 -2 -20 3 -8 8 -17 6 -29 -7 -10 -9 -33 -17 -51 -17 -19 0 -29 -3 -23 -7 8 -4 7 -9 -2 -13 -8 -3 -4 -3 9 0 31 8 27 -1 -12 -25 -20 -13 -41 -19 -52 -14 -11 4 -15 3 -11 -4 10 -15 -25 -22 -92 -18 -63 3 -105 20 -95 37 4 6 3 8 -4 4 -6 -3 -13 -2 -17 4 -4 6 -11 7 -17 4 -6 -4 -9 -1 -6 6 2 8 -3 21 -12 30 -12 12 -17 36 -19 78 -1 55 0 61 16 55 16 -6 17 -5 3 12 -12 14 -12 19 -2 23 7 2 18 10 26 17 7 8 16 11 20 8 3 -4 6 1 6 10 0 15 29 30 60 31 9 1 15 11 15 28 0 14 3 30 8 34 16 16 5 51 -24 77 -17 15 -34 27 -38 27 -30 0 -141 -87 -141 -110 0 -5 -7 -7 -15 -4 -11 5 -13 2 -9 -10 3 -9 2 -16 -3 -16 -5 0 -10 -6 -11 -12 -2 -30 -67 -253 -74 -256 -4 -2 -8 -10 -8 -18 0 -9 -4 -12 -10 -9 -5 3 -7 0 -4 -8 6 -17 -21 -41 -35 -32 -6 3 -8 0 -5 -8 3 -10 -4 -17 -23 -22 -46 -13 -114 -2 -110 18 1 6 -3 11 -9 10 -15 -3 -10 52 11 130 2 4 3 14 4 23 0 8 4 13 9 11 4 -3 7 9 7 26 -1 18 5 51 13 74 20 62 5 85 -53 78 -58 -7 -89 -19 -113 -45 -12 -13 -25 -19 -33 -15 -8 5 -10 4 -5 -3 4 -6 -2 -31 -14 -56 -11 -25 -17 -52 -13 -62 4 -12 3 -15 -5 -10 -9 5 -11 -3 -8 -26 9 -81 -86 -156 -182 -145 -34 4 -45 10 -48 30 -1 7 -3 17 -4 22 -6 27 1 56 12 49 6 -4 8 -3 4 4 -5 9 8 44 43 112 5 9 2 25 -8 40 -15 24 -15 25 4 10 20 -14 20 -14 1 7 -10 12 -16 29 -13 37 3 8 -2 20 -11 28 -15 12 -16 11 -3 -4 17 -22 12 -22 -25 -3 -42 22 -72 18 -102 -12 -15 -15 -30 -27 -35 -25 -4 1 -6 -1 -6 -5 3 -21 -2 -34 -11 -28 -6 4 -8 16 -5 28 5 20 5 20 -6 4 -8 -14 -8 -22 0 -30 12 -12 15 -41 4 -34 -9 5 -28 -12 -31 -28 -1 -5 -9 -18 -17 -28 -8 -9 -15 -21 -15 -25 -1 -14 -114 -97 -128 -94 -8 2 -11 -1 -7 -7 3 -6 -2 -11 -12 -11 -10 0 -29 -7 -42 -16 -23 -17 -146 -24 -201 -12 -14 3 -29 6 -33 7 -5 0 -5 6 -1 12 4 8 -1 9 -16 4 -17 -5 -21 -4 -15 6 6 9 4 11 -8 6 -12 -4 -14 -2 -10 11 3 9 3 14 -2 10 -8 -8 -45 33 -45 51 0 6 -4 11 -8 11 -14 0 -14 81 0 98 10 12 10 14 1 8 -17 -9 -16 -6 3 35 15 31 72 94 75 83 1 -2 2 -8 3 -13 0 -5 4 -13 8 -16 4 -4 5 4 3 17 -4 22 1 28 38 43 59 25 56 24 115 34 29 6 63 13 75 16 18 5 19 4 7 -5 -19 -14 -6 -10 45 15 22 11 43 24 46 28 3 4 12 7 20 5 8 -2 13 3 11 11 -2 8 3 11 12 8 10 -4 19 4 27 28 7 19 16 32 21 29 4 -3 5 2 2 10 -3 9 -1 16 5 16 6 0 11 7 11 16 0 9 5 12 11 8 7 -4 10 -1 7 7 -3 8 3 33 13 57 10 23 15 42 12 42 -4 0 2 7 13 15 10 8 15 15 10 15 -5 0 -2 7 5 16 7 9 18 25 24 36 5 12 15 21 20 21 6 0 25 20 44 43 18 24 37 41 42 38 5 -3 9 -1 9 5 0 15 73 56 95 53 13 -2 16 0 8 5 -8 6 14 14 58 22 69 13 98 9 69 -9 -8 -6 -10 -10 -4 -10 5 0 16 6 23 13 12 10 13 9 7 -7 -7 -20 -6 -20 14 -1 20 18 20 18 14 1 -5 -13 -3 -17 6 -14 17 5 49 -25 46 -44 -1 -7 -5 -20 -10 -28 -7 -12 -6 -12 4 -3 23 21 41 4 35 -36 -4 -29 -3 -31 4 -11 l9 25 2 -25 c4 -47 -2 -135 -10 -138 -4 -2 -6 -11 -3 -22 3 -10 -1 -36 -8 -57 -7 -21 -17 -68 -24 -106 -10 -61 -10 -69 7 -83 9 -9 15 -21 12 -26 -4 -6 4 -5 16 2 12 7 20 8 16 2 -3 -6 10 -9 34 -9 22 0 40 5 40 9 0 5 11 13 25 18 14 5 30 21 37 35 6 14 16 24 22 22 6 -3 12 6 12 18 1 12 16 51 33 86 17 35 31 71 31 79 0 9 4 20 9 25 7 8 35 92 46 135 7 28 18 50 26 50 6 0 7 5 4 10 -3 6 -1 10 5 10 6 0 8 4 5 10 -8 14 47 81 63 75 6 -2 12 0 12 6 0 14 66 5 87 -12 9 -8 14 -9 10 -3 -3 6 0 11 7 11 8 0 12 -7 8 -15 -3 -10 -1 -13 6 -8 8 5 10 2 6 -8 -4 -9 -1 -16 6 -16 12 0 5 -54 -9 -75 -4 -5 -16 -32 -26 -60 -10 -27 -22 -54 -26 -60 -5 -5 -9 -14 -9 -21 0 -6 -8 -29 -17 -50 -9 -22 -18 -46 -20 -54 -2 -8 -6 -30 -9 -47 -8 -40 16 -55 46 -28 11 10 20 15 20 11 0 -4 15 2 33 13 19 11 37 18 40 14 4 -3 12 -1 19 4 22 17 65 24 90 14 13 -6 17 -10 9 -10 -8 -1 -12 -4 -9 -7 4 -3 16 0 28 6 17 9 21 9 15 0 -4 -7 -1 -10 11 -8 11 2 18 -2 17 -9 -2 -7 2 -12 9 -10 6 1 17 -8 23 -20 7 -13 14 -21 17 -18 2 3 3 -16 1 -42 -3 -27 -9 -52 -15 -58 -8 -7 -8 -6 -3 4 6 10 4 12 -4 7 -7 -5 -10 -15 -7 -23 4 -10 2 -13 -8 -10 -11 4 -13 1 -9 -10 4 -11 2 -14 -5 -9 -7 4 -12 2 -12 -4 0 -14 -40 -49 -57 -50 -7 0 -13 -5 -13 -12 0 -6 -3 -8 -6 -5 -4 4 -22 -9 -41 -29 -30 -33 -33 -41 -31 -89 3 -45 5 -51 17 -42 11 9 13 9 8 1 -4 -7 5 -19 19 -29 15 -10 23 -12 19 -4 -5 8 0 7 14 -3 21 -15 68 -12 115 7 15 7 17 5 11 -6 -5 -8 -5 -11 1 -6 5 5 9 13 9 19 0 6 8 12 18 14 22 3 52 38 78 91 12 24 24 41 28 39 4 -3 7 3 8 12 2 35 15 78 29 99 8 12 14 30 14 40 0 10 7 31 15 47 8 15 15 33 15 38 0 20 53 79 67 74 8 -3 12 -2 9 3 -3 5 2 12 12 17 30 13 76 14 84 2 6 -10 8 -10 8 0 0 9 7 8 25 -4 20 -13 24 -21 18 -43 -8 -34 -38 -83 -46 -75 -3 3 -3 -5 0 -18 4 -18 2 -20 -6 -8 -7 11 -9 4 -6 -28 2 -28 0 -40 -7 -36 -6 4 -8 -1 -3 -16 4 -13 3 -20 -2 -17 -5 3 -9 -2 -10 -11 -3 -33 -49 -153 -56 -146 -10 10 -9 -10 3 -41 8 -21 7 -26 -2 -22 -7 2 -12 10 -10 16 1 7 -2 10 -8 6 -14 -9 -3 -24 26 -35 24 -10 33 -30 13 -30 -5 0 -7 5 -3 12 4 7 3 8 -5 4 -6 -4 -8 -12 -5 -18 5 -8 1 -9 -10 -5 -11 4 -15 3 -11 -4 4 -6 14 -7 24 -4 9 4 25 9 37 11 12 2 42 13 67 24 26 12 50 20 53 20 10 -2 65 101 88 165 6 16 9 17 16 5 6 -9 10 -10 10 -3 0 6 -5 15 -10 18 -6 4 -8 10 -6 14 3 4 8 29 11 55 7 51 35 121 48 123 5 1 12 5 15 9 4 4 1 4 -5 0 -23 -13 -13 12 12 32 14 11 25 24 25 30 0 23 103 34 143 15 32 -16 33 -22 7 -75 -11 -22 -17 -45 -13 -51 3 -6 1 -7 -5 -3 -8 5 -12 -1 -12 -16 0 -13 -6 -32 -13 -43 -7 -11 -19 -51 -26 -89 -7 -39 -15 -74 -18 -79 -6 -9 -9 -36 -17 -109 -1 -18 3 -28 12 -28 7 0 11 -4 8 -9 -4 -5 2 -8 11 -6 10 2 22 4 26 4 5 1 5 5 2 11 -3 6 1 7 9 4 9 -4 16 -1 16 6 0 8 9 11 24 8 19 -4 23 -1 18 10 -4 11 -1 14 11 9 12 -4 14 -2 10 10 -4 9 -2 14 3 11 5 -3 17 3 27 14 9 10 14 18 10 18 -5 0 -3 4 3 8 35 24 117 240 116 305 -1 24 2 26 14 16 16 -13 19 2 3 18 -7 7 -6 14 3 24 12 13 17 29 20 67 1 6 6 12 11 12 6 0 7 3 4 7 -4 3 0 17 8 30 9 13 13 29 9 35 -4 7 -3 8 4 4 8 -5 12 0 12 12 0 11 7 25 15 32 8 7 15 19 15 27 0 7 7 16 15 19 8 4 15 11 15 18 1 15 36 56 49 56 6 0 10 3 9 8 -4 10 44 54 82 75 18 9 53 17 80 17 52 0 103 -17 94 -31 -3 -5 3 -6 12 -2 13 5 15 3 9 -7 -6 -9 -4 -11 4 -6 8 5 14 0 18 -13 3 -12 12 -21 20 -21 8 0 11 -4 8 -10 -3 -5 -1 -10 6 -10 7 0 9 -3 6 -6 -3 -4 -1 -16 5 -28 17 -32 20 -76 7 -130 -8 -35 -14 -44 -21 -35 -7 10 -8 9 -4 -6 8 -27 -70 -130 -126 -167 -24 -16 -51 -35 -60 -43 -10 -8 -29 -17 -43 -21 -14 -3 -22 -10 -19 -15 3 -5 -8 -12 -25 -15 -17 -4 -28 -10 -25 -15 5 -9 -11 -13 -31 -9 -5 1 -7 -1 -3 -5 8 -8 -52 -61 -64 -57 -4 1 -7 -1 -6 -5 1 -5 -3 -18 -10 -29 -12 -22 -33 -136 -26 -143 2 -2 4 2 4 10 0 7 9 -2 19 -21 11 -20 26 -34 35 -34 13 2 14 -1 5 -12 -10 -12 -9 -13 6 -8 14 6 16 4 10 -6 -6 -9 -4 -11 4 -5 7 4 32 9 54 10 58 5 89 13 97 25 4 6 17 13 30 15 13 3 37 19 53 37 16 18 26 27 22 19 -6 -9 -4 -12 3 -7 7 4 12 13 12 19 0 7 14 27 30 46 17 18 30 37 30 41 0 6 63 91 118 157 14 17 30 30 34 27 4 -3 8 2 8 10 0 8 9 18 20 21 11 3 20 10 20 15 0 8 38 23 53 21 4 -1 7 3 7 8 0 10 38 24 59 21 7 -1 10 3 7 8 -3 6 2 8 14 5 11 -3 20 -1 20 5 0 6 22 9 53 7 35 -2 46 -1 32 5 -35 15 122 0 166 -15 23 -8 45 -13 49 -10 4 3 13 -2 20 -10 7 -8 18 -15 25 -15 22 0 66 -62 54 -76 -8 -9 -44 -12 -44 -4 0 1 -13 3 -30 4 -16 1 -39 6 -50 10 -59 23 -76 26 -143 29 -40 2 -68 0 -62 -3 6 -4 -10 -13 -35 -20 -26 -7 -58 -24 -71 -37 -13 -13 -29 -21 -34 -18 -6 4 -9 3 -8 -2 1 -4 -10 -27 -25 -50 -15 -24 -27 -47 -27 -53 0 -6 -4 -8 -10 -5 -5 3 -10 2 -10 -4 0 -5 -3 -17 -7 -27 -4 -12 -3 -15 5 -10 7 4 12 3 12 -3 0 -5 -5 -13 -11 -16 -15 -10 -6 -142 10 -158 11 -10 12 -9 6 2 -6 11 -4 13 9 8 10 -4 22 -7 27 -7 6 0 8 -4 4 -9 -3 -5 0 -13 6 -17 8 -5 9 -3 4 6 -6 10 -4 12 8 7 16 -6 30 6 33 32 3 19 40 51 50 43 4 -4 4 -1 -1 6 -4 9 1 25 14 43 11 15 21 31 21 35 0 17 33 73 41 68 5 -3 7 1 4 8 -2 7 9 29 26 48 17 19 28 29 24 23 -8 -17 0 -16 18 1 15 16 101 11 91 -5 -3 -5 2 -9 11 -9 12 0 15 -6 10 -23 -5 -17 -4 -19 4 -7 9 13 11 12 11 -6 0 -11 -3 -24 -7 -28 -4 -3 -8 -14 -9 -22 -5 -32 -15 -49 -22 -37 -4 6 -7 -17 -7 -52 -1 -38 3 -61 9 -58 5 4 7 -1 3 -10 -4 -11 -1 -17 9 -17 8 0 12 -4 9 -10 -7 -11 -7 -11 52 -14 23 -1 40 1 37 5 -6 10 45 41 56 34 6 -3 10 -1 10 4 0 6 -5 11 -11 11 -5 0 -7 5 -4 10 4 6 10 8 15 5 4 -3 11 2 14 11 3 9 2 12 -5 8 -6 -3 0 11 13 32 28 44 43 52 52 28 7 -20 -68 -124 -90 -124 -8 0 -14 -5 -14 -11 0 -18 -44 -49 -62 -43 -9 3 -19 0 -23 -5 -4 -7 1 -9 12 -5 10 3 1 -5 -21 -16 -22 -12 -49 -20 -62 -17 -13 2 -24 0 -24 -4 0 -10 -31 -12 -54 -3 -9 3 -13 11 -9 18 4 6 -1 5 -10 -3 -18 -15 -23 -3 -7 17 7 9 7 9 -2 2 -19 -16 -25 -12 -44 33 -17 40 -18 41 -22 15 -11 -83 94 -130 212 -96 54 15 149 81 183 127 15 20 33 40 40 44 7 4 18 17 24 29 6 12 7 18 1 14 -6 -4 -8 2 -5 15 4 15 8 17 14 8 5 -9 10 -5 14 14 14 52 -17 80 -61 56 -14 -7 -44 -44 -66 -81 -22 -37 -45 -68 -50 -68 -5 0 -7 -4 -3 -9 7 -12 -26 -31 -53 -31 -44 0 -65 64 -42 126 15 37 23 24 9 -15 -21 -59 16 -116 59 -92 15 9 15 10 -5 11 -12 0 -27 9 -33 19 -14 26 -9 120 7 133 7 5 15 25 19 44 7 41 -13 78 -48 87 -21 6 -21 5 4 -14 24 -18 28 -27 27 -67 l-1 -47 -8 39 c-14 71 -90 108 -153 74 -20 -10 -21 -10 -9 5 8 9 26 18 40 20 l27 4 -27 2 c-37 2 -90 -46 -128 -116 -16 -31 -30 -60 -30 -64 0 -14 -71 -127 -91 -144 -18 -17 -20 -17 -39 0 -27 24 -34 90 -17 147 21 67 95 150 160 178 58 26 167 33 208 14 106 -49 187 -43 208 17 8 23 6 34 -13 61 -58 87 -257 132 -416 94 -73 -17 -154 -53 -176 -77 -9 -10 -22 -19 -29 -19 -6 0 -22 -12 -36 -27 -18 -20 -19 -24 -4 -13 19 14 19 14 6 -2 -7 -10 -20 -18 -27 -18 -8 0 -14 -4 -14 -9 0 -5 -7 -16 -15 -24 -8 -8 -40 -53 -71 -99 -57 -83 -113 -153 -123 -153 -3 0 -15 -6 -26 -14 l-20 -13 20 6 c31 9 -20 -29 -73 -55 -97 -48 -200 20 -176 116 5 20 9 23 16 13 5 -8 6 -4 2 14 -4 21 -1 27 15 33 12 3 21 11 21 16 0 13 44 50 88 74 126 70 288 204 278 232 -3 7 0 12 6 10 17 -3 44 53 57 119 39 200 -133 347 -314 269 -79 -35 -203 -199 -268 -355 -15 -36 -40 -120 -57 -188 -47 -190 -91 -267 -175 -306 -22 -10 -44 -21 -49 -24 -5 -3 -6 7 -1 24 13 49 22 113 15 109 -4 -2 -13 -32 -20 -65 -17 -78 -6 -92 46 -61 20 12 38 20 40 18 5 -5 -91 -57 -105 -57 -16 0 -8 46 40 215 49 174 76 243 100 256 27 14 24 25 -18 54 -48 32 -111 33 -172 2 -24 -12 -43 -25 -42 -29 0 -5 -8 -17 -20 -29 -29 -29 -57 -99 -85 -213 -14 -54 -32 -110 -40 -125 -42 -74 -54 -88 -93 -109 -39 -22 -43 -23 -66 -8 -26 17 -30 37 -15 71 7 16 9 13 7 -14 -3 -46 21 -60 65 -39 l33 15 -40 -1 c-39 -1 -39 0 -47 42 -5 29 -3 55 7 80 7 20 26 76 41 124 15 48 33 89 40 92 10 4 11 -1 4 -20 -11 -29 -13 -50 -4 -41 10 10 53 140 54 163 0 36 -41 64 -96 65 -53 1 -109 -16 -100 -30 3 -5 -7 -17 -22 -26 l-27 -18 19 21 c26 30 12 28 -18 -3 -43 -42 -74 -107 -106 -215 -34 -114 -67 -178 -108 -210 -15 -12 -21 -18 -13 -14 8 4 12 3 8 -3 -4 -6 -36 -10 -73 -9 -61 1 -68 4 -96 35 -33 36 -49 35 -28 -4 20 -38 72 -58 118 -46 51 15 62 13 32 -4 -69 -39 -170 4 -170 74 0 19 76 91 96 91 5 0 17 8 25 18 9 9 32 31 51 48 19 16 32 36 30 43 -3 8 0 11 5 8 13 -8 43 56 43 92 0 40 -39 93 -85 116 -54 27 -153 26 -217 -3 -59 -26 -64 -38 -5 -15 24 10 69 18 107 18 113 0 181 -53 179 -140 l-1 -40 -8 42 c-12 58 -34 87 -82 109 -73 33 -189 15 -273 -41 -19 -14 -35 -22 -35 -19 0 16 33 79 48 91 11 10 12 12 2 8 -12 -5 -12 -4 1 7 18 15 73 147 65 156 -3 3 -6 -1 -6 -8 0 -7 -2 -11 -5 -8 -3 2 4 31 16 64 35 102 -1 166 -95 166 -24 0 -54 -6 -66 -12 -14 -8 -20 -8 -16 -1 11 16 86 33 121 27 41 -8 76 -46 85 -93 l8 -38 1 35 c0 19 -2 44 -5 55 -8 29 -59 55 -110 55 -50 0 -122 -32 -131 -58 -4 -9 -15 -28 -24 -42 -10 -14 -32 -68 -50 -120 -108 -323 -180 -435 -256 -398 -46 23 -49 38 -23 135 57 214 39 347 -58 421 -31 23 -45 27 -106 27 -54 0 -82 -6 -115 -22 -25 -13 -46 -21 -49 -19 -7 8 72 43 124 55 75 18 127 2 185 -58 58 -61 74 -113 66 -224 -4 -64 -3 -76 5 -57 20 46 15 180 -8 230 -51 110 -148 151 -274 116z m2532 -34 c78 -46 118 -114 118 -201 0 -45 -28 -156 -37 -147 -2 2 3 27 13 55 34 105 -1 210 -92 274 -54 38 -129 45 -186 17 -23 -11 -44 -18 -46 -15 -3 3 15 14 39 25 64 29 133 26 191 -8z m-2642 -37 c0 -2 -10 -9 -22 -15 -22 -11 -22 -10 -4 4 21 17 26 19 26 11z m859 -244 c-12 -28 -24 -49 -27 -47 -2 3 6 28 19 55 29 66 36 60 8 -8z m729 -87 c23 -15 29 -60 12 -99 -6 -14 -8 -8 -4 20 8 60 -10 78 -87 83 -47 4 -59 7 -44 13 26 11 94 2 123 -17z m402 -6 c20 -12 30 -23 23 -25 -7 -3 -25 5 -39 16 -32 25 -89 28 -139 7 -42 -18 -46 -13 -7 8 41 23 120 20 162 -6z m1318 -7 c40 -11 84 -27 98 -36 28 -18 64 -72 64 -95 -1 -8 -9 1 -20 21 -23 43 -53 64 -128 90 -122 42 -290 31 -405 -27 -27 -14 -47 -21 -44 -17 5 8 54 31 132 64 56 23 212 23 303 0z m-3628 -96 c-20 -24 -95 -53 -179 -69 -43 -8 -101 -24 -129 -35 -57 -23 -72 -21 -19 2 70 31 88 36 148 47 79 15 148 38 166 56 19 19 29 18 13 -1z m1240 -165 c0 -5 -5 -10 -11 -10 -5 0 -7 5 -4 10 3 6 8 10 11 10 2 0 4 -4 4 -10z m2637 -65 c8 -23 0 -25 -21 -4 -18 17 -18 19 -2 19 9 0 19 -7 23 -15z"/> <path d="M3316 1808 c35 -41 44 -49 44 -41 -1 11 -47 63 -56 63 -4 0 1 -10 12 -22z"/> <path d="M3707 1819 c7 -7 15 -10 18 -7 3 3 -2 9 -12 12 -14 6 -15 5 -6 -5z"/> <path d="M4444 1819 c-5 -9 -2 -10 9 -6 9 3 18 2 21 -4 2 -5 3 -4 2 3 -3 17 -23 21 -32 7z"/> <path d="M4740 1826 c0 -4 9 -16 20 -28 11 -12 20 -17 20 -11 0 5 -9 18 -20 28 -11 10 -20 15 -20 11z"/> <path d="M4864 1814 c9 -8 16 -20 16 -26 0 -6 3 -9 6 -6 8 9 -14 48 -27 48 -6 0 -3 -7 5 -16z"/> <path d="M0 1808 c0 -9 5 -20 10 -23 13 -8 13 5 0 25 -8 13 -10 13 -10 -2z"/> <path d="M1685 1811 c-3 -5 -2 -12 3 -15 5 -3 9 1 9 9 0 17 -3 19 -12 6z"/> <path d="M2230 1815 c0 -5 5 -17 10 -25 5 -8 10 -10 10 -5 0 6 -5 17 -10 25 -5 8 -10 11 -10 5z"/> <path d="M5140 1816 c0 -2 7 -9 15 -16 13 -11 14 -10 9 4 -5 14 -24 23 -24 12z"/> <path d="M5670 1815 c0 -17 30 -55 43 -55 7 1 6 5 -4 13 -8 7 -21 21 -27 32 -6 11 -12 15 -12 10z"/> <path d="M2065 1801 c-3 -5 -2 -12 3 -15 5 -3 9 1 9 9 0 17 -3 19 -12 6z"/> <path d="M2126 1785 c9 -14 19 -24 21 -21 7 7 -16 46 -28 46 -5 0 -2 -11 7 -25z"/> <path d="M411 1795 c0 -13 38 -59 44 -54 2 3 -7 18 -20 34 -13 17 -24 26 -24 20z"/> <path d="M1615 1780 c10 -11 20 -20 23 -20 3 0 -3 9 -13 20 -10 11 -20 20 -23 20 -3 0 3 -9 13 -20z"/> <path d="M3040 1792 c0 -5 7 -15 15 -22 8 -7 15 -8 15 -2 0 5 -7 15 -15 22 -8 7 -15 8 -15 2z"/> <path d="M3450 1792 c0 -5 7 -15 15 -22 8 -7 15 -9 15 -6 0 4 -7 14 -15 22 -8 9 -15 11 -15 6z"/> <path d="M3730 1792 c0 -5 7 -15 15 -22 8 -7 15 -8 15 -2 0 5 -7 15 -15 22 -8 7 -15 8 -15 2z"/> <path d="M3845 1790 c3 -5 8 -10 11 -10 2 0 4 5 4 10 0 6 -5 10 -11 10 -5 0 -7 -4 -4 -10z"/> <path d="M4790 1777 c0 -16 21 -47 33 -47 8 0 9 3 1 8 -6 4 -16 16 -22 27 -6 11 -12 16 -12 12z"/> <path d="M4900 1776 c0 -11 30 -39 36 -34 2 3 -5 13 -16 23 -11 10 -20 15 -20 11z"/> <path d="M5980 1770 c0 -5 5 -10 10 -10 6 0 10 5 10 10 0 6 -4 10 -10 10 -5 0 -10 -4 -10 -10z"/> <path d="M1520 1750 c6 -11 13 -20 16 -20 2 0 0 9 -6 20 -6 11 -13 20 -16 20 -2 0 0 -9 6 -20z"/> <path d="M3876 1755 c4 -8 11 -15 16 -15 6 0 5 6 -2 15 -7 8 -14 15 -16 15 -2 0 -1 -7 2 -15z"/> <path d="M337 1731 c23 -22 39 -28 28 -11 -3 5 -16 15 -28 21 l-22 11 22 -21z"/> <path d="M2290 1730 c6 -11 12 -20 14 -20 2 0 2 9 -1 20 -3 11 -9 20 -15 20 -5 0 -4 -9 2 -20z"/> <path d="M2967 1739 c7 -7 15 -10 18 -7 3 3 -2 9 -12 12 -14 6 -15 5 -6 -5z"/> <path d="M4530 1740 c0 -6 7 -10 15 -10 8 0 15 2 15 4 0 2 -7 6 -15 10 -8 3 -15 1 -15 -4z"/> <path d="M5617 1731 c23 -22 39 -28 28 -11 -3 5 -16 15 -28 21 l-22 11 22 -21z"/> <path d="M5725 1740 c3 -5 8 -10 11 -10 2 0 4 5 4 10 0 6 -5 10 -11 10 -5 0 -7 -4 -4 -10z"/> <path d="M2180 1731 c0 -6 4 -13 10 -16 6 -3 7 1 4 9 -7 18 -14 21 -14 7z"/> <path d="M3790 1722 c6 -13 14 -21 18 -18 3 4 -2 14 -12 24 -18 16 -18 16 -6 -6z"/> <path d="M4950 1721 c0 -10 57 -71 67 -71 3 0 -2 10 -13 22 -37 42 -54 58 -54 49z"/> <path d="M2715 1710 c3 -5 8 -10 11 -10 2 0 4 5 4 10 0 6 -5 10 -11 10 -5 0 -7 -4 -4 -10z"/> <path d="M3120 1702 c6 -13 14 -21 18 -18 3 4 -2 14 -12 24 -18 16 -18 16 -6 -6z"/> <path d="M3400 1714 c0 -7 27 -34 34 -34 4 0 1 9 -6 20 -12 19 -28 27 -28 14z"/> <path d="M3515 1710 c3 -5 8 -10 11 -10 2 0 4 5 4 10 0 6 -5 10 -11 10 -5 0 -7 -4 -4 -10z"/> <path d="M4840 1714 c0 -6 11 -24 25 -40 14 -16 25 -24 25 -19 0 14 -49 72 -50 59z"/> <path d="M496 1688 c41 -48 81 -88 88 -88 4 0 -11 19 -34 42 -22 23 -40 45 -40 49 0 4 -8 10 -17 13 -14 6 -14 3 3 -16z"/> <path d="M4585 1677 c15 -21 30 -35 33 -32 3 3 -9 20 -27 38 l-34 32 28 -38z"/> <path d="M1900 1691 c0 -6 4 -13 10 -16 6 -3 7 1 4 9 -7 18 -14 21 -14 7z"/> <path d="M2210 1690 c0 -5 5 -10 10 -10 6 0 10 5 10 10 0 6 -4 10 -10 10 -5 0 -10 -4 -10 -10z"/> <path d="M3010 1690 c0 -5 5 -10 11 -10 5 0 7 5 4 10 -3 6 -8 10 -11 10 -2 0 -4 -4 -4 -10z"/> <path d="M3820 1695 c0 -5 5 -17 10 -25 5 -8 10 -10 10 -5 0 6 -5 17 -10 25 -5 8 -10 11 -10 5z"/> <path d="M3935 1690 c3 -5 8 -10 11 -10 2 0 4 5 4 10 0 6 -5 10 -11 10 -5 0 -7 -4 -4 -10z"/> <path d="M1797 1666 c-14 -13 -29 -21 -32 -17 -4 3 -6 1 -4 -4 1 -5 -3 -22 -9 -37 -10 -24 -21 -32 -42 -30 -3 0 -6 -8 -6 -18 0 -10 4 -16 8 -14 4 3 8 2 8 -3 -1 -12 -26 -43 -31 -38 -3 2 -6 -5 -6 -17 -3 -34 -24 -78 -35 -72 -6 4 -5 -4 2 -16 8 -15 8 -20 1 -16 -7 4 -11 -1 -11 -13 0 -10 -9 -40 -20 -66 -20 -46 -20 -48 -2 -72 16 -22 27 -26 80 -27 33 0 59 1 56 3 -2 2 5 10 16 18 11 8 20 21 20 29 0 9 5 12 12 8 8 -5 9 -2 5 9 -3 10 -2 17 3 17 5 0 9 8 9 18 0 16 7 54 11 60 2 1 3 5 4 10 1 4 10 31 20 59 9 29 15 57 11 63 -3 5 -1 10 5 10 7 0 9 7 6 17 -4 9 -2 19 4 23 5 3 12 19 14 36 2 16 6 36 8 44 3 8 3 12 1 8 -10 -18 -23 -6 -17 16 3 13 1 27 -5 30 -7 5 -9 0 -5 -11 5 -17 5 -17 -9 0 -19 23 -39 21 -70 -7z m61 -31 c5 -40 -13 -130 -50 -250 -48 -156 -48 -157 -116 -153 -56 3 -57 3 -56 33 2 29 43 150 49 143 2 -2 -7 -34 -20 -73 -13 -38 -21 -73 -17 -76 14 -13 90 -21 97 -10 4 7 -10 11 -39 11 -30 0 -46 4 -46 13 0 6 12 47 25 90 14 43 23 83 20 88 -4 5 -1 17 5 26 9 15 10 14 5 -7 l-6 -25 15 25 c18 30 20 44 5 34 -7 -4 -10 -1 -7 7 3 8 11 13 17 11 7 -1 10 2 7 7 -8 12 4 42 14 36 4 -3 11 2 14 11 4 10 2 13 -6 8 -15 -10 -4 7 34 50 37 42 52 42 56 1z"/> <path d="M1780 1494 c0 -8 -4 -12 -10 -9 -5 3 -10 1 -10 -4 0 -18 19 -12 30 9 7 14 7 20 0 20 -5 0 -10 -7 -10 -16z"/> <path d="M2751 1667 c15 -14 29 -32 32 -39 2 -7 8 -10 12 -6 7 7 -15 33 -50 58 -11 7 -8 2 6 -13z"/> <path d="M5740 1674 c-103 -22 -203 -62 -277 -111 -90 -60 -125 -94 -179 -175 -40 -59 -94 -175 -94 -201 0 -7 69 43 180 130 8 7 114 89 235 183 121 95 224 176 230 181 12 12 -16 10 -95 -7z m0 -30 c0 -14 -45 -44 -57 -39 -8 2 -12 1 -9 -4 5 -8 -28 -41 -104 -101 -17 -14 -38 -24 -46 -22 -9 2 -12 -3 -8 -13 4 -10 0 -15 -10 -15 -9 0 -16 -4 -16 -10 0 -5 -7 -10 -16 -10 -8 0 -13 -4 -10 -9 6 -9 -22 -26 -36 -23 -5 1 -8 -2 -8 -6 0 -8 -133 -115 -167 -135 -25 -15 -4 48 23 71 16 13 23 21 17 18 -9 -5 -11 -2 -7 8 3 9 11 13 17 9 6 -4 7 -1 2 6 -4 8 1 22 14 35 12 11 31 34 42 49 12 16 27 26 35 23 8 -3 14 1 14 8 0 19 83 78 140 100 25 10 47 21 50 25 5 7 102 37 128 40 6 0 12 -2 12 -5z"/> <path d="M2622 1643 c-15 -48 -8 -55 8 -8 7 20 10 38 8 41 -3 2 -10 -13 -16 -33z"/> <path d="M400 1660 c8 -5 20 -10 25 -10 6 0 3 5 -5 10 -8 5 -19 10 -25 10 -5 0 -3 -5 5 -10z"/> <path d="M1320 1660 c0 -5 5 -10 11 -10 5 0 7 5 4 10 -3 6 -8 10 -11 10 -2 0 -4 -4 -4 -10z"/> <path d="M2246 1651 c10 -10 21 -17 23 -15 6 6 -20 34 -32 34 -6 0 -2 -8 9 -19z"/> <path d="M3061 1635 c18 -19 35 -32 38 -30 6 7 -50 65 -62 65 -5 0 6 -16 24 -35z"/> <path d="M3447 1659 c7 -7 15 -10 18 -7 3 3 -2 9 -12 12 -14 6 -15 5 -6 -5z"/> <path d="M3565 1660 c3 -5 8 -10 11 -10 2 0 4 5 4 10 0 6 -5 10 -11 10 -5 0 -7 -4 -4 -10z"/> <path d="M5400 1666 c0 -2 7 -9 15 -16 9 -7 15 -8 15 -2 0 5 -7 12 -15 16 -8 3 -15 4 -15 2z"/> <path d="M3170 1656 c0 -4 9 -19 20 -33 11 -14 20 -21 20 -16 0 6 -9 20 -20 33 -11 13 -20 20 -20 16z"/> <path d="M4187 1644 c2 -6 -8 -25 -22 -42 -14 -17 -29 -47 -32 -66 -3 -20 -9 -33 -13 -31 -7 4 -19 -20 -25 -50 -3 -17 -16 -49 -32 -82 -8 -17 -15 -44 -15 -58 0 -19 -5 -25 -15 -21 -9 4 -7 -4 7 -24 24 -34 32 -36 51 -14 7 9 22 14 35 11 13 -2 23 -1 22 2 -2 12 16 47 45 84 35 45 77 126 77 149 0 9 4 19 9 23 6 3 10 13 9 23 0 9 2 27 5 39 7 27 -2 65 -14 57 -5 -3 -9 -1 -9 5 0 6 -19 10 -44 9 -28 -2 -42 -6 -39 -14z m75 -29 c17 -38 -33 -177 -89 -245 -91 -111 -134 -137 -111 -67 13 40 33 63 23 27 -5 -19 -4 -21 4 -10 6 8 8 23 5 33 -3 10 1 24 9 30 21 17 51 103 41 119 -4 7 -4 10 1 6 8 -8 34 20 34 37 0 6 -6 1 -14 -9 -17 -23 -20 -14 -4 15 5 11 14 17 20 14 5 -4 8 -2 7 3 -4 13 40 72 53 72 5 0 14 -11 21 -25z m-136 -166 c-9 -19 -15 -29 -16 -22 0 15 22 64 27 60 2 -2 -3 -19 -11 -38z"/> <path d="M5640 1498 c-113 -88 -238 -185 -277 -216 -40 -32 -88 -68 -108 -82 -19 -14 -35 -28 -35 -32 0 -9 111 1 190 17 204 41 374 202 426 406 9 33 14 62 12 64 -2 2 -95 -69 -208 -157z m164 64 c-4 -18 -11 -32 -16 -32 -6 0 -7 -8 -4 -17 4 -10 4 -14 0 -10 -4 4 -15 -11 -25 -33 -23 -51 -97 -140 -117 -140 -9 0 -13 -3 -9 -6 6 -7 -16 -34 -28 -34 -4 0 -20 -9 -36 -21 -28 -20 -57 -30 -91 -32 -9 -1 -14 -6 -11 -11 4 -5 -1 -7 -10 -3 -10 3 -17 3 -17 -1 0 -14 -124 -32 -135 -20 -7 8 -5 9 7 5 13 -4 15 -2 11 10 -5 13 -2 15 12 9 11 -4 16 -4 12 0 -6 7 40 53 56 55 4 1 11 2 16 3 5 0 13 5 18 10 5 5 2 6 -7 2 -8 -4 -5 2 8 13 13 11 31 28 40 38 9 11 13 12 7 3 -5 -8 6 -1 26 15 20 17 49 40 65 52 16 13 40 32 54 43 14 11 48 39 75 60 28 22 57 47 66 56 14 12 18 13 22 2 3 -8 6 -6 6 6 1 11 3 17 6 14 3 -3 2 -19 -1 -36z"/> <path d="M4900 1641 c0 -5 5 -13 10 -16 6 -3 10 -2 10 4 0 5 -4 13 -10 16 -5 3 -10 2 -10 -4z"/> <path d="M150 1637 c0 -11 58 -73 63 -67 2 3 -12 21 -30 40 -18 19 -33 31 -33 27z"/> <path d="M450 1610 c23 -32 40 -46 40 -33 0 10 -45 63 -54 63 -4 0 2 -13 14 -30z"/> <path d="M1350 1630 c0 -5 5 -10 11 -10 5 0 7 5 4 10 -3 6 -8 10 -11 10 -2 0 -4 -4 -4 -10z"/> <path d="M3490 1610 c22 -31 40 -46 40 -33 -1 10 -47 63 -55 63 -4 0 3 -13 15 -30z"/> <path d="M3598 1625 c11 -22 50 -61 55 -54 2 2 -12 20 -31 39 -19 20 -29 26 -24 15z"/> <path d="M3882 1620 c12 -19 28 -27 28 -14 0 7 -27 34 -34 34 -4 0 -1 -9 6 -20z"/> <path d="M4532 1606 c6 -14 17 -27 25 -30 9 -4 7 4 -7 24 -26 36 -33 39 -18 6z"/> <path d="M4640 1622 c0 -13 48 -63 52 -55 2 4 -9 20 -24 35 -15 15 -28 24 -28 20z"/> <path d="M5437 1615 c3 -8 9 -12 14 -9 12 7 11 11 -5 17 -10 4 -13 1 -9 -8z"/> <path d="M2690 1610 c0 -5 5 -10 11 -10 5 0 7 5 4 10 -3 6 -8 10 -11 10 -2 0 -4 -4 -4 -10z"/> <path d="M4930 1610 c0 -5 5 -10 11 -10 5 0 7 5 4 10 -3 6 -8 10 -11 10 -2 0 -4 -4 -4 -10z"/> <path d="M70 1590 c6 -11 15 -20 20 -20 6 0 5 9 -2 20 -7 11 -16 20 -21 20 -4 0 -3 -9 3 -20z"/> <path d="M1385 1590 c10 -11 20 -20 22 -20 2 0 -2 9 -9 20 -7 11 -17 20 -22 20 -5 0 -1 -9 9 -20z"/> <path d="M5056 1595 c4 -8 11 -15 16 -15 6 0 5 6 -2 15 -7 8 -14 15 -16 15 -2 0 -1 -7 2 -15z"/> <path d="M3220 1590 c0 -5 5 -10 11 -10 5 0 7 5 4 10 -3 6 -8 10 -11 10 -2 0 -4 -4 -4 -10z"/> <path d="M5860 1590 c0 -5 5 -10 11 -10 5 0 7 5 4 10 -3 6 -8 10 -11 10 -2 0 -4 -4 -4 -10z"/> <path d="M600 1575 c7 -9 15 -13 17 -11 7 7 -7 26 -19 26 -6 0 -6 -6 2 -15z"/> <path d="M1575 1580 c3 -5 8 -10 11 -10 2 0 4 5 4 10 0 6 -5 10 -11 10 -5 0 -7 -4 -4 -10z"/> <path d="M2732 1556 c17 -20 34 -36 36 -36 8 0 -45 64 -56 68 -7 2 3 -13 20 -32z"/> <path d="M3120 1566 c14 -13 27 -22 29 -20 7 6 -31 44 -43 44 -6 0 1 -11 14 -24z"/> <path d="M4955 1580 c3 -5 8 -10 11 -10 2 0 4 5 4 10 0 6 -5 10 -11 10 -5 0 -7 -4 -4 -10z"/> <path d="M5415 1579 c-4 -6 -5 -12 -2 -15 2 -3 7 2 10 11 7 17 1 20 -8 4z"/> <path d="M500 1554 c0 -8 5 -12 10 -9 6 4 8 11 5 16 -9 14 -15 11 -15 -7z"/> <path d="M4981 1554 c0 -11 3 -14 6 -6 3 7 2 16 -1 19 -3 4 -6 -2 -5 -13z"/> <path d="M5085 1560 c3 -5 8 -10 11 -10 2 0 4 5 4 10 0 6 -5 10 -11 10 -5 0 -7 -4 -4 -10z"/> <path d="M110 1546 c0 -8 7 -16 15 -20 13 -4 14 -2 5 14 -13 23 -20 26 -20 6z"/> <path d="M225 1550 c3 -5 8 -10 11 -10 2 0 4 5 4 10 0 6 -5 10 -11 10 -5 0 -7 -4 -4 -10z"/> <path d="M629 1555 c-1 -6 -1 -13 0 -17 0 -4 -13 -20 -29 -37 -17 -17 -26 -32 -20 -36 5 -3 10 -2 10 3 0 4 14 23 32 41 24 24 28 35 20 43 -7 7 -13 8 -13 3z"/> <path d="M3545 1550 c3 -5 8 -10 11 -10 2 0 4 5 4 10 0 6 -5 10 -11 10 -5 0 -7 -4 -4 -10z"/> <path d="M4580 1556 c0 -4 7 -14 15 -22 8 -9 15 -11 15 -6 0 5 -7 15 -15 22 -8 7 -15 9 -15 6z"/> <path d="M1342 1530 c0 -14 2 -19 5 -12 2 6 2 18 0 25 -3 6 -5 1 -5 -13z"/> <path d="M1436 1537 c3 -10 9 -15 12 -12 3 3 0 11 -7 18 -10 9 -11 8 -5 -6z"/> <path d="M2852 1518 c-13 -15 -20 -28 -15 -28 12 0 45 40 41 49 -2 4 -13 -5 -26 -21z"/> <path d="M4710 1541 c0 -6 4 -13 10 -16 6 -3 7 1 4 9 -7 18 -14 21 -14 7z"/> <path d="M5105 1539 c-4 -6 -5 -13 -2 -16 7 -7 27 6 27 18 0 12 -17 12 -25 -2z"/> <path d="M5910 1543 c0 -5 17 -27 38 -49 39 -42 34 -32 -11 24 -15 19 -27 30 -27 25z"/> <path d="M3280 1532 c0 -5 14 -21 30 -35 17 -15 30 -24 30 -21 0 4 -13 20 -30 36 -16 15 -30 24 -30 20z"/> <path d="M2626 1513 c-6 -14 -5 -15 5 -6 7 7 10 15 7 18 -3 3 -9 -2 -12 -12z"/> <path d="M145 1500 c3 -5 11 -10 16 -10 6 0 7 5 4 10 -3 6 -11 10 -16 10 -6 0 -7 -4 -4 -10z"/> <path d="M260 1506 c0 -2 7 -7 16 -10 8 -3 12 -2 9 4 -6 10 -25 14 -25 6z"/> <path d="M545 1500 c3 -5 8 -10 11 -10 2 0 4 5 4 10 0 6 -5 10 -11 10 -5 0 -7 -4 -4 -10z"/> <path d="M2770 1506 c0 -2 7 -7 16 -10 8 -3 12 -2 9 4 -6 10 -25 14 -25 6z"/> <path d="M3170 1506 c0 -2 7 -9 15 -16 13 -11 14 -10 9 4 -5 14 -24 23 -24 12z"/> <path d="M4631 1493 c7 -12 15 -20 18 -17 3 2 -3 12 -13 22 -17 16 -18 16 -5 -5z"/> <path d="M5061 1490 c-15 -13 -18 -20 -9 -20 8 0 23 9 33 20 23 26 7 25 -24 0z"/> <path d="M1346 1488 c3 -5 10 -6 15 -3 13 9 11 12 -6 12 -8 0 -12 -4 -9 -9z"/> <path d="M3740 1464 c14 -16 28 -33 33 -39 5 -5 3 1 -3 16 -6 14 -21 31 -33 38 -20 13 -20 11 3 -15z"/> <path d="M4755 1480 c3 -5 8 -10 11 -10 2 0 4 5 4 10 0 6 -5 10 -11 10 -5 0 -7 -4 -4 -10z"/> <path d="M2808 1473 c7 -3 16 -2 19 1 4 3 -2 6 -13 5 -11 0 -14 -3 -6 -6z"/> <path d="M310 1460 c0 -14 75 -100 87 -100 6 0 -30 43 -53 65 -6 5 -16 19 -22 30 -8 14 -11 15 -12 5z"/> <path d="M1390 1450 c0 -5 5 -10 10 -10 6 0 10 5 10 10 0 6 -4 10 -10 10 -5 0 -10 -4 -10 -10z"/> <path d="M716 1435 c-3 -8 -1 -15 4 -15 13 0 22 18 11 24 -5 3 -11 -1 -15 -9z"/> <path d="M2130 1441 c0 -6 5 -13 10 -16 6 -3 10 1 10 9 0 9 -4 16 -10 16 -5 0 -10 -4 -10 -9z"/> <path d="M3370 1430 c6 -11 16 -20 22 -20 6 0 3 9 -7 20 -10 11 -20 20 -22 20 -2 0 1 -9 7 -20z"/> <path d="M2934 1417 c-28 -29 -38 -47 -25 -47 5 0 12 9 16 19 3 11 15 23 26 26 10 4 19 11 19 16 0 15 -13 9 -36 -14z"/> <path d="M228 1412 c9 -10 19 -17 21 -16 6 5 -20 34 -30 34 -5 0 -1 -8 9 -18z"/> <path d="M5170 1410 c-6 -11 -8 -20 -6 -20 3 0 10 9 16 20 6 11 8 20 6 20 -3 0 -10 -9 -16 -20z"/> <path d="M694 1412 c3 -6 -3 -16 -14 -22 -17 -9 -18 -14 -8 -30 7 -11 19 -22 27 -25 12 -5 11 -2 -2 13 -15 16 -15 20 -2 39 11 16 12 24 4 29 -8 4 -9 3 -5 -4z"/> <path d="M2111 1404 c0 -11 3 -14 6 -6 3 7 2 16 -1 19 -3 4 -6 -2 -5 -13z"/> <path d="M2071 1393 c0 -12 -4 -30 -7 -40 -5 -14 -4 -15 5 -7 7 6 11 24 8 40 -3 21 -4 23 -6 7z"/> <path d="M770 1380 c6 -11 16 -20 22 -20 6 0 3 9 -7 20 -10 11 -20 20 -22 20 -2 0 1 -9 7 -20z"/> <path d="M3400 1392 c0 -12 19 -26 26 -19 2 2 -2 10 -11 17 -9 8 -15 8 -15 2z"/> <path d="M5206 1387 c3 -10 9 -15 12 -12 3 3 0 11 -7 18 -10 9 -11 8 -5 -6z"/> <path d="M2311 1374 c0 -11 3 -14 6 -6 3 7 2 16 -1 19 -3 4 -6 -2 -5 -13z"/> <path d="M1346 1368 c3 -5 10 -6 15 -3 13 9 11 12 -6 12 -8 0 -12 -4 -9 -9z"/> <path d="M2926 1363 c-4 -10 2 -26 16 -42 13 -14 26 -30 30 -35 5 -6 8 -6 8 0 0 5 -11 21 -25 36 -14 16 -22 33 -19 42 3 9 4 16 1 16 -3 0 -8 -7 -11 -17z"/> <path d="M4450 1375 c0 -5 5 -17 10 -25 5 -8 10 -10 10 -5 0 6 -5 17 -10 25 -5 8 -10 11 -10 5z"/> <path d="M4872 1371 c-11 -7 -10 -9 3 -14 9 -4 14 -3 10 2 -3 5 1 12 7 14 7 3 9 6 3 6 -5 0 -16 -3 -23 -8z"/> <path d="M281 1347 c2 -1 15 -11 29 -22 l25 -20 -19 23 c-11 12 -24 22 -29 22 -6 0 -8 -1 -6 -3z"/> <path d="M407 1339 c7 -7 15 -10 18 -7 3 3 -2 9 -12 12 -14 6 -15 5 -6 -5z"/> <path d="M807 1339 c7 -7 15 -10 18 -7 3 3 -2 9 -12 12 -14 6 -15 5 -6 -5z"/> <path d="M1105 1320 c16 -16 30 -28 33 -26 7 8 -33 55 -47 56 -10 0 -4 -11 14 -30z"/> <path d="M1214 1331 c21 -23 26 -26 26 -11 0 5 -10 15 -22 21 -23 12 -23 12 -4 -10z"/> <path d="M5987 1319 c4 -13 8 -18 11 -10 2 7 -1 18 -6 23 -8 8 -9 4 -5 -13z"/> <path d="M2047 1298 c-9 -59 29 -91 83 -69 24 9 23 10 -11 10 -45 1 -63 21 -55 61 3 17 2 30 -3 30 -5 0 -11 -15 -14 -32z"/> <path d="M3362 1311 c17 -29 41 -41 32 -16 -4 9 -9 13 -12 11 -3 -3 -12 2 -20 12 -12 15 -12 14 0 -7z"/> <path d="M3701 1303 c-16 -34 -61 -182 -60 -197 0 -6 18 41 39 104 38 114 45 146 21 93z"/> <path d="M3750 1325 c1 -17 29 -49 37 -41 4 3 -3 16 -15 29 -12 12 -22 17 -22 12z"/> <path d="M430 1315 c0 -10 68 -74 73 -69 3 3 -10 21 -29 40 -34 33 -44 40 -44 29z"/> <path d="M830 1314 c0 -7 60 -64 67 -64 3 0 -8 15 -24 34 -26 32 -43 44 -43 30z"/> <path d="M5710 1311 c0 -5 7 -12 16 -15 14 -5 15 -4 4 9 -14 17 -20 19 -20 6z"/> <path d="M340 1290 c0 -5 5 -10 11 -10 5 0 7 5 4 10 -3 6 -8 10 -11 10 -2 0 -4 -4 -4 -10z"/> <path d="M749 1282 c6 -12 16 -24 22 -28 8 -4 8 -1 0 14 -6 12 -16 24 -22 28 -8 4 -8 1 0 -14z"/> <path d="M46 1273 c-4 -10 -4 -14 0 -11 4 4 16 2 28 -4 21 -11 21 -11 2 11 -23 25 -22 25 -30 4z"/> <path d="M2825 1271 c-3 -5 -2 -12 3 -15 5 -3 9 1 9 9 0 17 -3 19 -12 6z"/> <path d="M360 1260 c8 -5 20 -10 25 -10 6 0 3 5 -5 10 -8 5 -19 10 -25 10 -5 0 -3 -5 5 -10z"/> <path d="M5775 1245 c22 -38 56 -75 68 -75 5 0 -5 15 -22 33 -17 17 -38 41 -47 52 -13 16 -13 15 1 -10z"/> <path d="M397 1219 c4 -13 8 -18 11 -10 2 7 -1 18 -6 23 -8 8 -9 4 -5 -13z"/> <path d="M930 1213 c0 -6 8 -17 18 -24 16 -13 16 -13 2 6 -8 11 -16 22 -17 24 -2 2 -3 0 -3 -6z"/> <path d="M3238 1132 c-42 -123 -41 -119 -29 -102 13 18 65 170 59 175 -2 2 -15 -31 -30 -73z"/> <path d="M451 1163 c27 -34 60 -65 65 -61 2 3 -12 21 -31 41 -37 38 -58 50 -34 20z"/> <path d="M5728 1164 c11 -22 42 -51 42 -40 0 4 -12 19 -26 34 -20 21 -24 22 -16 6z"/> <path d="M170 1156 c0 -4 12 -19 26 -34 20 -21 24 -22 16 -6 -11 22 -42 51 -42 40z"/> <path d="M575 1150 c3 -5 8 -10 11 -10 2 0 4 5 4 10 0 6 -5 10 -11 10 -5 0 -7 -4 -4 -10z"/> <path d="M865 1140 c10 -11 20 -18 23 -15 7 6 -18 35 -31 35 -5 0 -2 -9 8 -20z"/> <path d="M1300 1149 c0 -6 -7 -8 -16 -5 -35 13 -171 -95 -163 -130 1 -5 -1 -17 -6 -27 -4 -9 -4 -32 -1 -50 4 -17 8 -40 9 -49 1 -12 5 -14 11 -8 15 15 26 12 20 -4 -6 -15 11 -16 34 -3 6 5 17 5 24 1 7 -4 8 -3 4 4 -4 7 -1 12 6 12 7 0 24 14 37 30 13 16 27 27 32 24 5 -3 6 3 2 12 -4 12 -3 15 6 10 6 -4 11 -4 10 1 -4 21 2 34 13 27 7 -4 8 -3 4 4 -4 6 -1 22 5 34 7 13 16 39 19 59 6 33 4 38 -22 53 -18 11 -28 13 -28 5z m30 -36 c0 -22 -56 -142 -76 -164 -10 -12 -24 -14 -52 -10 -32 5 -37 10 -40 35 -5 41 27 106 57 118 103 42 111 44 111 21z m-177 -107 c-3 -19 -2 -47 1 -62 6 -24 10 -26 41 -21 19 3 35 2 35 -3 0 -15 -51 -24 -69 -13 -17 11 -26 71 -17 110 9 35 15 28 9 -11z"/> <path d="M1638 1153 c7 -3 16 -2 19 1 4 3 -2 6 -13 5 -11 0 -14 -3 -6 -6z"/> <path d="M5455 1150 c3 -5 8 -10 11 -10 2 0 4 5 4 10 0 6 -5 10 -11 10 -5 0 -7 -4 -4 -10z"/> <path d="M5866 1135 c9 -14 26 -31 38 -37 16 -9 15 -5 -6 17 -16 15 -28 32 -28 36 0 5 -5 9 -10 9 -6 0 -3 -11 6 -25z"/> <path d="M1205 1140 c-3 -6 1 -7 9 -4 18 7 21 14 7 14 -6 0 -13 -4 -16 -10z"/> <path d="M3015 1139 c-4 -6 -5 -12 -2 -15 2 -3 7 2 10 11 7 17 1 20 -8 4z"/> <path d="M2855 1110 c10 -11 20 -20 22 -20 2 0 -1 9 -7 20 -6 11 -16 20 -22 20 -6 0 -3 -9 7 -20z"/> <path d="M5490 1110 c13 -11 25 -20 28 -20 3 0 -3 9 -13 20 -10 11 -23 20 -28 20 -6 0 0 -9 13 -20z"/> <path d="M0 1099 c0 -5 5 -7 10 -4 5 3 10 8 10 11 0 2 -4 4 -10 4 -5 0 -10 -5 -10 -11z"/> <path d="M630 1103 c0 -14 48 -68 54 -62 2 2 -9 20 -25 39 -16 19 -29 29 -29 23z"/> <path d="M4694 1095 c8 -8 18 -15 22 -15 3 0 1 7 -6 15 -7 8 -17 15 -22 15 -5 0 -3 -7 6 -15z"/> <path d="M5385 1100 c3 -5 8 -10 11 -10 2 0 4 5 4 10 0 6 -5 10 -11 10 -5 0 -7 -4 -4 -10z"/> <path d="M5780 1103 c0 -5 14 -22 30 -38 17 -16 30 -26 30 -23 0 3 -13 20 -30 38 -16 18 -30 28 -30 23z"/> <path d="M2105 1089 c-4 -6 -5 -12 -2 -15 2 -3 7 2 10 11 7 17 1 20 -8 4z"/> <path d="M3280 1095 c0 -4 9 -18 20 -32 11 -14 20 -22 20 -18 0 4 -9 18 -20 32 -11 14 -20 22 -20 18z"/> <path d="M5120 1080 c6 -11 15 -20 20 -20 6 0 2 9 -7 20 -10 11 -19 20 -21 20 -1 0 2 -9 8 -20z"/> <path d="M3675 1080 c-4 -6 -4 -14 0 -19 3 -5 1 -12 -5 -16 -5 -3 -10 -11 -10 -16 0 -10 13 1 38 32 10 14 10 18 -2 22 -9 4 -18 2 -21 -3z"/> <path d="M4625 1057 c-4 -18 -5 -53 -3 -77 3 -39 6 -45 28 -48 24 -3 24 -3 5 11 -17 13 -20 26 -19 81 0 36 0 66 -2 66 -2 0 -6 -15 -9 -33z"/> <path d="M547 1056 c20 -26 27 -28 17 -3 -3 8 -12 18 -20 21 -11 4 -10 0 3 -18z"/> <path d="M2341 1064 c0 -11 3 -14 6 -6 3 7 2 16 -1 19 -3 4 -6 -2 -5 -13z"/> <path d="M2887 1064 c6 -15 23 -19 23 -5 0 5 -7 11 -14 14 -10 4 -13 1 -9 -9z"/> <path d="M5536 1061 c10 -10 21 -17 23 -15 6 6 -20 34 -32 34 -6 0 -2 -8 9 -19z"/> <path d="M5916 1064 c-9 -24 -2 -26 12 -4 7 11 8 20 3 20 -5 0 -12 -7 -15 -16z"/> <path d="M2069 1051 c-28 -31 -33 -47 -7 -23 13 12 28 19 32 15 4 -4 4 0 0 10 -3 9 -7 17 -8 16 0 0 -8 -9 -17 -18z"/> <path d="M2775 1060 c3 -5 8 -10 11 -10 2 0 4 5 4 10 0 6 -5 10 -11 10 -5 0 -7 -4 -4 -10z"/> <path d="M260 1050 c0 -5 5 -10 11 -10 5 0 7 5 4 10 -3 6 -8 10 -11 10 -2 0 -4 -4 -4 -10z"/> <path d="M3291 1024 c0 -11 3 -14 6 -6 3 7 2 16 -1 19 -3 4 -6 -2 -5 -13z"/> <path d="M5751 1026 c-9 -11 -6 -13 14 -13 20 0 23 2 14 13 -6 8 -13 14 -14 14 -1 0 -8 -6 -14 -14z"/> <path d="M5885 1030 c-4 -6 -16 -8 -28 -4 -20 6 -20 6 -4 -10 16 -16 18 -16 33 -1 9 9 14 18 11 21 -3 3 -8 0 -12 -6z"/> <path d="M289 1017 c6 -8 8 -16 5 -19 -2 -3 2 -8 11 -11 19 -8 20 10 1 29 -18 18 -32 19 -17 1z"/> <path d="M589 1013 c12 -24 31 -39 31 -25 0 5 -10 17 -21 28 -22 19 -22 19 -10 -3z"/> <path d="M704 1014 c9 -8 16 -20 16 -26 0 -6 3 -9 6 -6 8 9 -14 48 -27 48 -6 0 -3 -7 5 -16z"/> <path d="M2800 1026 c0 -2 11 -11 25 -20 14 -9 25 -13 25 -8 0 5 -11 14 -25 20 -14 6 -25 10 -25 8z"/> <path d="M4011 993 c-1 -47 49 -87 104 -80 22 2 56 12 75 21 19 9 26 14 15 11 -95 -28 -155 -13 -179 43 l-15 37 0 -32z"/> <path d="M5590 1015 c0 -5 5 -17 10 -25 5 -8 10 -10 10 -5 0 6 -5 17 -10 25 -5 8 -10 11 -10 5z"/> <path d="M1615 990 c-10 -11 -14 -20 -8 -20 5 0 18 9 28 20 10 11 14 20 8 20 -5 0 -18 -9 -28 -20z"/> <path d="M1967 962 c-4 -29 -10 -60 -13 -70 -2 -9 3 -2 11 17 9 18 15 50 13 70 -3 33 -4 32 -11 -17z"/> <path d="M3236 996 c3 -9 13 -16 22 -16 8 0 13 1 11 3 -2 1 -12 9 -22 16 -15 12 -17 12 -11 -3z"/> <path d="M5078 992 c9 -10 19 -17 21 -16 6 5 -20 34 -30 34 -5 0 -1 -8 9 -18z"/> <path d="M5481 995 c0 -5 11 -23 24 -40 14 -16 25 -25 25 -20 0 6 -11 24 -25 40 -13 17 -24 26 -24 20z"/> <path d="M5725 990 c-3 -5 -1 -10 4 -10 6 0 11 5 11 10 0 6 -2 10 -4 10 -3 0 -8 -4 -11 -10z"/> <path d="M5790 990 c0 -5 5 -10 10 -10 17 0 11 -26 -10 -45 -11 -10 -20 -22 -20 -26 0 -4 14 5 31 20 28 26 29 31 17 50 -14 22 -28 28 -28 11z"/> <path d="M630 971 c0 -6 12 -23 28 -39 15 -16 42 -47 60 -68 17 -21 32 -34 32 -28 0 5 -12 23 -27 40 -16 17 -43 47 -60 67 -18 21 -33 33 -33 28z"/> <path d="M267 952 c-10 -10 -17 -22 -17 -27 0 -4 9 2 20 15 11 13 20 25 20 27 0 7 -8 2 -23 -15z"/> <path d="M5605 940 c-11 -16 -26 -30 -32 -30 -7 0 -13 -4 -13 -10 0 -5 3 -10 6 -10 8 0 74 67 74 75 0 14 -17 2 -35 -25z"/> <path d="M5700 959 c0 -5 5 -7 10 -4 6 3 10 8 10 11 0 2 -4 4 -10 4 -5 0 -10 -5 -10 -11z"/> <path d="M543 945 c-10 -11 -9 -13 7 -12 20 1 26 12 13 20 -5 3 -14 -1 -20 -8z"/> <path d="M140 940 c-9 -6 -10 -10 -3 -10 6 0 15 5 18 10 8 12 4 12 -15 0z"/> <path d="M1557 939 c7 -7 15 -10 18 -7 3 3 -2 9 -12 12 -14 6 -15 5 -6 -5z"/> <path d="M5666 926 c-13 -20 -13 -24 -2 -20 8 3 17 13 20 21 10 26 0 25 -18 -1z"/> <path d="M5260 935 c0 -4 9 -19 20 -35 17 -24 18 -29 5 -40 -8 -7 -15 -20 -14 -29 0 -11 3 -9 9 7 5 12 14 22 20 22 17 0 11 21 -15 52 -14 16 -25 27 -25 23z"/> <path d="M85 883 c-22 -27 -25 -33 -10 -25 20 10 55 47 55 57 0 13 -18 0 -45 -32z"/> <path d="M506 904 c-9 -24 -7 -27 9 -10 17 17 19 26 6 26 -5 0 -12 -7 -15 -16z"/> <path d="M803 898 c14 -23 14 -28 2 -38 -8 -7 -15 -17 -15 -22 0 -5 12 2 27 16 15 14 25 27 23 28 -3 2 -16 12 -30 23 l-24 20 17 -27z"/> <path d="M1541 899 c-13 -11 -22 -22 -19 -24 2 -3 15 6 28 20 28 30 24 32 -9 4z"/> <path d="M200 890 c0 -5 5 -10 11 -10 5 0 7 5 4 10 -3 6 -8 10 -11 10 -2 0 -4 -4 -4 -10z"/> <path d="M600 885 c0 -7 -8 -19 -17 -24 -10 -6 -13 -11 -6 -11 14 0 43 27 43 41 0 5 -4 9 -10 9 -5 0 -10 -7 -10 -15z"/> <path d="M2660 896 c0 -2 7 -7 16 -10 8 -3 12 -2 9 4 -6 10 -25 14 -25 6z"/> <path d="M2428 868 c-10 -10 -14 -18 -9 -18 10 0 36 29 30 34 -2 1 -12 -6 -21 -16z"/> <path d="M470 867 c-20 -15 -50 -58 -50 -71 0 -6 11 5 25 24 14 19 30 37 37 41 7 5 10 10 8 13 -3 2 -12 -1 -20 -7z"/> <path d="M876 862 c-4 -12 -12 -22 -17 -22 -5 0 -9 -5 -9 -12 0 -6 7 -4 18 5 23 21 29 21 35 0 4 -14 5 -15 6 -2 0 8 -5 24 -13 34 -13 18 -14 18 -20 -3z"/> <path d="M4160 876 c0 -3 9 -10 20 -16 11 -6 20 -8 20 -6 0 3 -9 10 -20 16 -11 6 -20 8 -20 6z"/> <path d="M5982 864 c-7 -8 -8 -14 -3 -14 10 0 25 19 20 25 -2 1 -10 -3 -17 -11z"/> <path d="M1991 828 c-22 -24 -41 -47 -41 -53 0 -5 12 4 26 20 15 17 37 40 51 53 13 12 20 22 14 22 -5 0 -28 -19 -50 -42z"/> <path d="M5357 863 c-4 -3 -7 -11 -7 -17 0 -6 5 -5 12 2 6 6 9 14 7 17 -3 3 -9 2 -12 -2z"/> <path d="M5690 820 c-23 -27 -36 -47 -28 -44 18 8 82 83 76 90 -3 2 -24 -18 -48 -46z"/> <path d="M164 835 c-9 -14 -14 -28 -10 -32 3 -3 6 -1 6 5 0 7 9 21 20 32 11 11 16 20 10 20 -5 0 -17 -11 -26 -25z"/> <path d="M2130 850 c-12 -7 -10 -9 7 -7 12 0 19 5 17 9 -6 10 -6 10 -24 -2z"/> <path d="M5220 845 c1 -17 29 -49 37 -41 4 3 -3 16 -15 29 -12 12 -22 17 -22 12z"/> <path d="M1590 830 c0 -5 5 -10 11 -10 5 0 7 5 4 10 -3 6 -8 10 -11 10 -2 0 -4 -4 -4 -10z"/> <path d="M2395 829 c-4 -6 -5 -12 -2 -15 2 -3 7 2 10 11 7 17 1 20 -8 4z"/> <path d="M3345 829 c-4 -6 -3 -15 3 -21 6 -6 11 -4 15 6 7 18 -9 31 -18 15z"/> <path d="M4985 830 c-3 -6 1 -7 9 -4 18 7 21 14 7 14 -6 0 -13 -4 -16 -10z"/> <path d="M5318 818 c-23 -23 -22 -31 0 -51 26 -24 39 -21 16 4 -15 17 -16 23 -5 41 16 26 11 30 -11 6z"/> <path d="M5380 835 c0 -3 9 -15 20 -27 22 -24 27 -13 6 15 -13 16 -26 23 -26 12z"/> <path d="M5570 825 c-7 -9 -11 -18 -8 -20 3 -3 11 1 18 10 7 9 11 18 8 20 -3 3 -11 -1 -18 -10z"/> <path d="M5946 824 c-9 -24 -7 -27 9 -10 17 17 19 26 6 26 -5 0 -12 -7 -15 -16z"/> <path d="M760 815 c0 -8 5 -15 10 -15 6 0 10 7 10 15 0 8 -4 15 -10 15 -5 0 -10 -7 -10 -15z"/> <path d="M2900 821 c0 -10 19 -25 25 -20 1 2 -3 10 -11 17 -8 7 -14 8 -14 3z"/> <path d="M4295 821 c-4 -7 0 -8 11 -4 13 5 15 3 9 -8 -4 -8 -5 -11 0 -7 4 4 15 0 23 -10 12 -15 12 -14 0 7 -17 28 -33 37 -43 22z"/> <path d="M3820 811 c0 -15 -33 -22 -42 -9 -6 11 -8 10 -8 0 0 -8 -5 -10 -12 -6 -8 4 -10 3 -5 -2 5 -5 13 -9 18 -9 20 0 12 -17 -34 -65 -26 -27 -44 -50 -40 -50 12 0 133 128 133 140 0 5 -2 10 -5 10 -3 0 -5 -4 -5 -9z"/> <path d="M4350 816 c0 -2 8 -10 18 -17 15 -13 16 -12 3 4 -13 16 -21 21 -21 13z"/> <path d="M820 802 c0 -5 9 -17 20 -27 22 -20 26 -9 6 18 -14 18 -26 22 -26 9z"/> <path d="M2869 793 c-13 -16 -12 -17 4 -4 9 7 17 15 17 17 0 8 -8 3 -21 -13z"/> <path d="M3311 793 c-12 -13 -11 -14 9 -8 17 5 21 4 15 -5 -5 -9 -4 -11 4 -6 9 6 9 11 0 22 -14 17 -11 17 -28 -3z"/> <path d="M1437 793 c-4 -3 -7 -11 -7 -17 0 -6 5 -5 12 2 6 6 9 14 7 17 -3 3 -9 2 -12 -2z"/> <path d="M5891 760 c-17 -22 -27 -40 -21 -40 6 0 18 13 29 30 10 16 21 27 24 23 4 -3 7 1 7 10 0 24 -3 22 -39 -23z"/> <path d="M103 768 c-37 -42 -37 -53 0 -18 20 19 37 36 37 37 0 10 -20 0 -37 -19z"/> <path d="M397 783 c-4 -3 -7 -11 -7 -17 0 -6 5 -5 12 2 6 6 9 14 7 17 -3 3 -9 2 -12 -2z"/> <path d="M509 773 c-13 -16 -12 -17 4 -4 9 7 17 15 17 17 0 8 -8 3 -21 -13z"/> <path d="M3400 780 c8 -5 20 -10 25 -10 6 0 3 5 -5 10 -8 5 -19 10 -25 10 -5 0 -3 -5 5 -10z"/> <path d="M3677 783 c-4 -3 -7 -11 -7 -17 0 -6 5 -5 12 2 6 6 9 14 7 17 -3 3 -9 2 -12 -2z"/> <path d="M5430 780 c0 -5 5 -10 11 -10 5 0 7 5 4 10 -3 6 -8 10 -11 10 -2 0 -4 -4 -4 -10z"/> <path d="M960 775 c0 -2 15 -19 33 -37 17 -18 45 -49 61 -68 16 -19 27 -30 25 -23 -11 32 -119 148 -119 128z"/> <path d="M1536 764 c-5 -14 -4 -15 9 -4 17 14 19 20 6 20 -5 0 -12 -7 -15 -16z"/> <path d="M5520 770 c0 -10 73 -81 78 -75 2 1 -15 21 -38 43 -22 23 -40 37 -40 32z"/> <path d="M562 750 c-7 -11 -8 -20 -3 -20 5 0 11 6 14 13 3 7 17 -3 38 -27 71 -80 109 -119 109 -110 0 5 -29 41 -65 79 -35 39 -64 73 -65 78 0 14 -15 7 -28 -13z"/> <path d="M3280 766 c0 -2 9 -6 20 -9 11 -3 18 -1 14 4 -5 9 -34 13 -34 5z"/> <path d="M5045 756 c-11 -8 -17 -18 -12 -22 4 -4 7 -2 7 5 0 10 8 8 28 -5 17 -11 23 -12 16 -3 -6 8 -13 20 -15 27 -3 10 -8 10 -24 -2z"/> <path d="M1410 749 c0 -5 5 -7 10 -4 6 3 10 8 10 11 0 2 -4 4 -10 4 -5 0 -10 -5 -10 -11z"/> <path d="M1907 735 c-11 -16 -13 -23 -5 -20 15 6 42 45 31 45 -5 0 -16 -12 -26 -25z"/> <path d="M2083 739 c-2 -23 3 -25 10 -4 4 8 3 16 -1 19 -4 3 -9 -4 -9 -15z"/> <path d="M2314 751 c3 -5 -4 -11 -15 -14 -12 -3 -18 -10 -15 -16 4 -5 2 -12 -3 -16 -6 -3 -20 -20 -32 -38 -15 -20 -4 -13 29 21 44 45 57 72 36 72 -3 0 -3 -4 0 -9z"/> <path d="M2772 725 c-17 -18 -29 -35 -25 -37 5 -1 20 -18 36 -36 15 -19 27 -29 27 -24 0 5 -9 19 -20 32 -20 23 -27 50 -12 50 4 0 15 12 25 25 26 36 8 30 -31 -10z"/> <path d="M3230 730 c12 -16 24 -30 26 -30 3 0 -3 14 -13 30 -9 17 -21 30 -26 30 -5 0 1 -13 13 -30z"/> <path d="M3642 748 c-7 -7 -12 -19 -12 -27 0 -11 5 -8 16 7 18 25 15 39 -4 20z"/> <path d="M4436 744 c-9 -8 -16 -20 -16 -25 0 -6 8 -2 17 8 10 10 22 21 28 25 6 5 6 8 -2 8 -6 0 -19 -7 -27 -16z"/> <path d="M4837 742 c-10 -10 -17 -22 -17 -27 0 -5 9 1 21 14 12 12 19 24 17 27 -3 2 -12 -4 -21 -14z"/> <path d="M5623 745 c-15 -16 -16 -25 -5 -25 4 0 13 9 20 20 14 23 3 26 -15 5z"/> <path d="M475 739 c-4 -6 -5 -12 -2 -15 2 -3 7 2 10 11 7 17 1 20 -8 4z"/> <path d="M4955 739 c-4 -6 -5 -12 -2 -15 2 -3 7 2 10 11 7 17 1 20 -8 4z"/> <path d="M5458 743 c7 -3 16 -2 19 1 4 3 -2 6 -13 5 -11 0 -14 -3 -6 -6z"/> <path d="M880 737 c0 -11 39 -52 44 -46 2 2 -7 15 -20 29 -13 13 -24 21 -24 17z"/> <path d="M1080 732 c0 -14 37 -44 43 -35 3 4 -6 16 -19 26 -13 10 -24 14 -24 9z"/> <path d="M2580 724 c0 -8 5 -12 10 -9 6 3 10 10 10 16 0 5 -4 9 -10 9 -5 0 -10 -7 -10 -16z"/> <path d="M3116 727 c3 -10 9 -15 12 -12 3 3 0 11 -7 18 -10 9 -11 8 -5 -6z"/> <path d="M3315 730 c3 -5 8 -10 11 -10 2 0 4 5 4 10 0 6 -5 10 -11 10 -5 0 -7 -4 -4 -10z"/> <path d="M3374 726 c-3 -9 -13 -16 -21 -16 -8 0 -11 -5 -7 -11 4 -7 13 -4 27 10 12 11 18 23 14 27 -4 4 -9 -1 -13 -10z"/> <path d="M4030 729 c0 -5 5 -7 10 -4 6 3 10 8 10 11 0 2 -4 4 -10 4 -5 0 -10 -5 -10 -11z"/> <path d="M5355 730 c3 -5 8 -10 11 -10 2 0 4 5 4 10 0 6 -5 10 -11 10 -5 0 -7 -4 -4 -10z"/> <path d="M326 709 c-15 -15 -17 -22 -8 -31 9 -9 12 -8 12 5 0 9 4 17 9 17 5 0 11 7 15 15 7 20 -5 18 -28 -6z"/> <path d="M1370 712 c-41 -45 -42 -49 -24 -77 9 -14 19 -23 22 -21 3 3 -1 12 -7 20 -16 19 -5 54 23 78 11 9 17 17 11 17 -5 0 -17 -8 -25 -17z"/> <path d="M2846 717 c3 -10 9 -15 12 -12 3 3 0 11 -7 18 -10 9 -11 8 -5 -6z"/> <path d="M5485 720 c3 -5 8 -10 11 -10 2 0 4 5 4 10 0 6 -5 10 -11 10 -5 0 -7 -4 -4 -10z"/> <path d="M41 703 c-7 -8 -11 -16 -8 -19 2 -2 10 2 17 11 17 20 9 27 -9 8z"/> <path d="M445 706 c-28 -32 -37 -46 -29 -46 10 1 48 49 42 55 -1 1 -7 -2 -13 -9z"/> <path d="M1485 706 c-23 -25 -26 -40 -4 -19 12 12 21 24 18 27 -2 2 -9 -1 -14 -8z"/> <path d="M1737 676 c-20 -25 -37 -48 -37 -52 0 -4 9 4 21 17 11 13 31 36 45 52 13 15 21 27 16 27 -4 0 -24 -20 -45 -44z"/> <path d="M4106 685 c-15 -19 -25 -35 -23 -35 2 0 20 16 40 35 20 19 30 35 23 35 -8 0 -26 -16 -40 -35z"/> <path d="M4902 683 c-18 -20 -32 -40 -32 -45 0 -5 -4 -7 -9 -3 -5 3 -12 1 -15 -4 -4 -5 -2 -12 3 -15 5 -4 22 11 38 31 15 21 35 43 43 50 8 6 13 14 10 17 -3 3 -20 -11 -38 -31z"/> <path d="M5955 698 l-20 -21 23 12 c12 6 22 16 22 21 0 13 -2 12 -25 -12z"/> <path d="M520 700 c-9 -6 -10 -10 -3 -10 6 0 15 5 18 10 8 12 4 12 -15 0z"/> <path d="M2146 687 c-10 -12 -28 -32 -39 -44 -11 -13 -18 -25 -15 -28 3 -3 22 15 43 40 20 25 35 48 33 50 -2 3 -12 -6 -22 -18z"/> <path d="M2550 700 c-13 -8 -13 -11 2 -26 15 -15 16 -14 15 10 -1 14 -2 26 -2 26 0 0 -7 -5 -15 -10z"/> <path d="M2665 690 c-10 -11 -16 -22 -14 -24 2 -3 14 6 26 20 12 13 18 24 14 24 -4 0 -16 -9 -26 -20z"/> <path d="M3155 690 c10 -11 20 -20 23 -20 3 0 -3 9 -13 20 -10 11 -20 20 -23 20 -3 0 3 -9 13 -20z"/> <path d="M3593 693 c-4 -10 -11 -21 -16 -24 -11 -8 -1 -29 14 -29 6 0 8 4 5 9 -4 5 -2 21 4 35 5 14 7 26 4 26 -2 0 -8 -8 -11 -17z"/> <path d="M4395 700 c-3 -5 -1 -10 4 -10 6 0 11 5 11 10 0 6 -2 10 -4 10 -3 0 -8 -4 -11 -10z"/> <path d="M4500 679 c-16 -18 -30 -37 -30 -42 0 -10 8 -3 54 51 29 34 10 26 -24 -9z"/> <path d="M4795 700 c-3 -5 -1 -18 4 -27 9 -15 10 -14 9 10 -3 30 -4 32 -13 17z"/> <path d="M4990 703 c1 -10 47 -63 55 -63 4 0 -3 13 -14 29 -11 15 -18 31 -14 35 3 3 -1 6 -10 6 -9 0 -17 -3 -17 -7z"/> <path d="M5100 700 c8 -5 20 -10 25 -10 6 0 3 5 -5 10 -8 5 -19 10 -25 10 -5 0 -3 -5 5 -10z"/> <path d="M5820 685 l-24 -26 29 -27 c16 -15 22 -18 14 -7 -8 11 -17 23 -22 26 -4 3 4 18 17 32 14 15 22 27 17 27 -4 0 -18 -11 -31 -25z"/> <path d="M1860 685 c-7 -8 -9 -15 -6 -15 4 0 14 7 22 15 9 8 11 15 6 15 -5 0 -15 -7 -22 -15z"/> <path d="M3297 666 c15 -19 32 -35 36 -35 5 -1 -4 14 -20 33 -15 19 -32 35 -36 35 -5 1 4 -14 20 -33z"/> <path d="M3975 673 c-32 -43 -39 -60 -14 -33 38 40 52 60 43 60 -5 0 -18 -13 -29 -27z"/> <path d="M530 675 c0 -3 9 -14 20 -25 22 -22 26 -14 6 13 -13 16 -26 23 -26 12z"/> <path d="M930 674 c0 -7 27 -34 34 -34 4 0 1 9 -6 20 -12 19 -28 27 -28 14z"/> <path d="M2904 655 c9 -14 14 -30 11 -35 -3 -5 1 -7 9 -4 13 5 12 10 -6 35 -27 36 -36 38 -14 4z"/> <path d="M4362 657 c-12 -13 -22 -27 -22 -33 0 -5 12 4 26 19 14 16 24 30 22 33 -3 2 -14 -6 -26 -19z"/> <path d="M5130 672 c0 -5 11 -19 25 -32 14 -13 25 -19 25 -14 0 6 -11 20 -25 32 -14 12 -25 18 -25 14z"/> <path d="M5410 671 c0 -5 5 -13 10 -16 6 -3 10 -2 10 4 0 5 -4 13 -10 16 -5 3 -10 2 -10 -4z"/> <path d="M241 619 c-19 -22 -30 -43 -26 -47 4 -4 10 -1 13 7 6 18 40 51 52 51 6 0 19 -9 30 -20 11 -11 20 -17 20 -12 -1 7 -47 63 -52 61 -2 0 -18 -18 -37 -40z"/> <path d="M355 636 c10 -15 22 -23 31 -19 8 3 14 6 12 7 -2 1 -16 10 -31 20 l-28 17 16 -25z"/> <path d="M1835 650 c-3 -5 -1 -10 4 -10 6 0 11 5 11 10 0 6 -2 10 -4 10 -3 0 -8 -4 -11 -10z"/> <path d="M2497 639 c-22 -25 -19 -32 7 -14 10 8 16 19 14 25 -2 6 -11 1 -21 -11z"/> <path d="M2593 636 c7 -13 15 -22 19 -20 8 5 -13 44 -23 44 -4 0 -2 -11 4 -24z"/> <path d="M2631 644 c0 -11 3 -14 6 -6 3 7 2 16 -1 19 -3 4 -6 -2 -5 -13z"/> <path d="M3190 655 c0 -5 5 -17 10 -25 5 -8 10 -10 10 -5 0 6 -5 17 -10 25 -5 8 -10 11 -10 5z"/> <path d="M4739 642 c-30 -35 -32 -44 -6 -27 15 9 31 14 38 10 8 -6 8 -2 0 14 -14 25 -13 25 -32 3z"/> <path d="M4825 650 c3 -5 8 -10 11 -10 2 0 4 5 4 10 0 6 -5 10 -11 10 -5 0 -7 -4 -4 -10z"/> <path d="M1460 643 c0 -13 29 -38 35 -31 3 3 -4 13 -15 23 -11 10 -20 13 -20 8z"/> <path d="M3700 647 c0 -10 41 -49 46 -45 2 3 -7 15 -21 28 -14 13 -25 20 -25 17z"/> <path d="M5556 635 c4 -8 11 -15 16 -15 6 0 5 6 -2 15 -7 8 -14 15 -16 15 -2 0 -1 -7 2 -15z"/> <path d="M581 630 c0 -8 24 -41 54 -73 30 -32 55 -55 55 -51 0 4 -12 20 -26 35 -64 69 -72 79 -77 91 -4 10 -6 9 -6 -2z"/> <path d="M5950 625 c7 -9 15 -13 17 -11 7 7 -7 26 -19 26 -6 0 -6 -6 2 -15z"/> <path d="M980 620 c0 -5 5 -10 11 -10 5 0 7 5 4 10 -3 6 -8 10 -11 10 -2 0 -4 -4 -4 -10z"/> <path d="M4043 614 c-7 -7 -9 -15 -5 -17 4 -3 13 1 19 9 7 7 9 15 5 17 -4 3 -13 -1 -19 -9z"/> <path d="M4430 610 c-8 -5 -10 -10 -5 -10 6 0 17 5 25 10 8 5 11 10 5 10 -5 0 -17 -5 -25 -10z"/> <path d="M4790 612 c0 -4 16 -25 35 -46 19 -21 35 -35 35 -31 0 4 -16 25 -35 46 -19 22 -35 35 -35 31z"/> <path d="M2463 595 c0 -8 4 -12 9 -9 5 3 6 10 3 15 -9 13 -12 11 -12 -6z"/> <path d="M1005 590 c3 -5 8 -10 11 -10 2 0 4 5 4 10 0 6 -5 10 -11 10 -5 0 -7 -4 -4 -10z"/> <path d="M1511 583 c17 -22 50 -53 57 -53 8 0 -53 69 -62 69 -5 1 -2 -7 5 -16z"/> <path d="M1649 598 c0 -2 -2 -20 -4 -41 l-3 -39 65 4 65 3 -1 -148 -2 -148 52 3 51 3 -1 147 -2 147 66 -6 65 -5 0 41 0 41 -175 0 c-96 0 -175 -1 -176 -2z m259 -27 c39 -1 61 -5 57 -11 -3 -5 -26 -10 -49 -10 -65 0 -70 -11 -70 -161 -1 -113 -3 -129 -17 -129 -9 0 -20 8 -24 18 -8 18 -7 154 1 198 3 18 1 23 -7 18 -9 -5 -10 -2 -6 11 11 26 -20 44 -74 45 -30 0 -46 4 -46 13 0 9 23 12 86 10 47 -1 114 -2 149 -2z"/> <path d="M2045 570 c-9 -16 -14 -30 -12 -30 2 0 13 14 25 30 13 17 18 30 13 30 -6 0 -17 -13 -26 -30z"/> <path d="M2200 579 c-47 -29 -68 -55 -80 -98 -21 -75 -7 -147 37 -194 43 -45 75 -57 151 -57 58 0 75 4 113 29 62 39 82 84 77 170 -4 80 -31 124 -92 152 -59 27 -160 26 -206 -2z m197 -18 c50 -20 76 -71 77 -151 0 -53 -5 -73 -23 -98 -12 -18 -28 -32 -34 -32 -7 0 -6 4 3 10 9 6 10 10 3 10 -7 0 -16 -8 -22 -17 -5 -10 -20 -18 -33 -18 -13 -1 -29 -5 -36 -9 -17 -10 -113 5 -105 17 4 6 0 8 -11 4 -11 -5 -15 -3 -10 5 5 8 2 9 -9 5 -11 -4 -17 -1 -17 7 0 8 -6 16 -13 19 -7 3 -19 30 -27 61 -16 69 -4 119 38 160 44 41 147 54 219 27z"/> <path d="M2243 545 c1 -5 -4 -9 -11 -7 -8 1 -20 -15 -29 -37 -9 -24 -20 -38 -27 -34 -6 3 -5 0 2 -8 6 -7 12 -30 12 -50 0 -50 12 -78 46 -113 26 -25 34 -27 73 -22 25 3 52 13 61 21 9 8 20 12 25 8 4 -5 5 -3 2 3 -3 6 2 20 12 31 15 16 18 32 15 73 -5 78 -23 117 -58 132 -36 15 -125 17 -123 3z m112 -21 c38 -15 59 -117 35 -178 -17 -45 -85 -63 -137 -35 -54 29 -58 167 -6 207 18 13 80 16 108 6z"/> <path d="M2290 430 c0 -5 5 -10 10 -10 6 0 10 5 10 10 0 6 -4 10 -10 10 -5 0 -10 -4 -10 -10z"/> <path d="M2270 411 c0 -5 -7 -17 -16 -26 -9 -9 -14 -18 -12 -20 3 -3 15 6 27 19 14 15 19 26 12 31 -6 3 -11 2 -11 -4z"/> <path d="M2333 392 c10 -10 14 -22 10 -26 -4 -4 0 -4 9 -1 15 6 15 8 0 26 -9 10 -21 19 -26 19 -5 0 -2 -8 7 -18z"/> <path d="M2560 592 c0 -5 7 -15 15 -22 8 -7 15 -8 15 -2 0 5 -7 15 -15 22 -8 7 -15 8 -15 2z"/> <path d="M2660 416 l0 -183 50 -2 50 -1 0 64 0 63 71 6 c39 3 82 13 96 22 35 23 52 68 43 118 -14 72 -70 97 -217 97 l-93 0 0 -184z m99 154 c64 9 116 5 137 -11 6 -5 14 -7 17 -4 4 3 5 2 2 -2 -3 -3 1 -11 9 -17 20 -16 27 -90 10 -114 -14 -20 -64 -36 -64 -20 0 5 -5 6 -10 3 -6 -4 -7 -11 -4 -17 4 -7 2 -8 -4 -4 -17 10 -15 19 9 34 15 10 19 10 14 1 -5 -8 -4 -10 4 -5 6 4 9 11 6 16 -3 5 -1 11 5 15 17 10 11 51 -11 79 -18 22 -28 26 -74 26 -30 0 -57 -5 -61 -12 -13 -21 -22 -88 -11 -81 6 4 8 0 4 -9 -8 -22 25 -49 62 -50 17 -1 28 -5 25 -9 -2 -4 -16 -6 -31 -5 -33 4 -63 -21 -57 -47 2 -11 -1 -26 -7 -33 -7 -8 -7 -14 1 -19 19 -12 10 -25 -19 -25 l-29 0 2 159 c0 88 3 155 6 150 3 -4 34 -4 69 1z m89 -46 c17 -5 22 -14 22 -40 0 -39 -27 -61 -77 -62 l-33 -1 0 55 0 54 33 0 c17 0 42 -3 55 -6z"/> <path d="M2808 563 c7 -3 16 -2 19 1 4 3 -2 6 -13 5 -11 0 -14 -3 -6 -6z"/> <path d="M3127 419 l1 -184 52 -3 52 -3 -4 64 -4 65 72 4 c91 6 135 30 148 79 15 60 1 105 -41 131 -32 19 -54 23 -158 26 l-120 4 2 -183z m256 140 c15 -7 25 -14 23 -17 -3 -2 1 -16 8 -31 13 -28 13 -32 2 -73 -10 -33 -68 -55 -138 -53 -62 3 -81 -17 -77 -78 4 -40 2 -43 -22 -45 l-26 -2 -2 149 c-2 130 0 151 15 159 22 12 181 5 217 -9z"/> <path d="M3214 538 c-14 -21 -15 -97 -3 -120 10 -18 17 -20 68 -15 63 7 91 30 91 76 0 50 -23 68 -89 70 -39 1 -62 -3 -67 -11z m110 -18 c20 -7 26 -17 26 -40 0 -37 -30 -57 -84 -56 l-40 1 -1 53 -1 52 37 0 c21 0 49 -4 63 -10z"/> <path d="M3600 415 l0 -185 50 0 50 0 0 185 0 185 -50 0 -50 0 0 -185z m72 151 c4 -6 8 -78 8 -159 l0 -148 -27 3 c-23 2 -28 8 -27 31 1 15 2 85 3 155 1 115 3 129 19 129 9 0 20 -5 24 -11z"/> <path d="M3880 415 l0 -185 45 0 44 0 3 128 c3 119 4 125 18 97 8 -16 24 -46 36 -65 11 -19 36 -63 54 -98 l33 -63 54 3 54 3 2 183 2 182 -47 0 -48 0 1 -137 c0 -108 3 -133 11 -113 6 14 12 68 14 120 2 85 4 95 22 98 18 3 19 -5 21 -152 l2 -156 -30 0 c-18 0 -31 5 -31 13 0 9 -2 9 -8 -1 -6 -9 -12 -5 -23 15 -8 16 -18 31 -24 35 -5 4 -6 8 -2 8 4 0 2 10 -5 23 -7 12 -11 25 -10 30 1 4 -2 7 -6 7 -5 0 -17 17 -28 37 -24 47 -38 63 -58 63 -25 0 -28 -17 -27 -121 2 -82 -1 -100 -14 -105 -9 -4 -19 -3 -23 1 -4 3 -8 77 -9 163 -1 86 2 150 6 143 5 -7 11 -9 14 -4 10 16 50 8 61 -13 6 -10 24 -39 39 -63 15 -23 39 -65 52 -91 25 -49 57 -83 41 -44 -5 10 -11 27 -13 37 -3 10 -28 55 -54 100 -27 45 -49 88 -49 95 0 8 -19 12 -60 12 l-60 0 0 -185z"/> <path d="M4505 591 c-77 -26 -116 -76 -123 -156 -6 -75 11 -118 65 -162 43 -36 51 -38 124 -42 54 -2 93 2 128 14 l51 17 0 86 0 87 -80 0 -80 0 0 -33 c0 -32 2 -33 33 -30 31 3 32 1 35 -34 l3 -38 -50 0 c-62 0 -93 13 -114 50 -32 53 -14 145 32 170 29 15 126 12 166 -4 l35 -15 0 38 c0 35 -3 39 -39 49 -41 13 -153 14 -186 3z m55 -23 c0 20 120 7 140 -15 12 -13 12 -14 0 -8 -29 17 -128 17 -165 -1 -19 -9 -35 -21 -35 -26 0 -5 -4 -7 -9 -3 -14 8 -34 -61 -33 -112 1 -25 8 -50 17 -59 8 -9 15 -19 15 -24 0 -25 102 -57 146 -46 43 11 65 84 33 107 -29 20 -23 29 19 29 l37 0 0 -60 c0 -33 -4 -60 -8 -60 -5 0 -6 -4 -3 -9 4 -5 -6 -12 -22 -16 -51 -11 -141 -14 -147 -5 -3 5 -12 7 -21 3 -18 -7 -79 34 -96 65 -7 13 -11 36 -10 50 1 21 0 24 -8 12 -12 -18 -2 46 11 72 12 23 11 37 -1 18 -7 -10 -10 -11 -10 -2 0 37 125 115 142 88 6 -8 8 -7 8 2z"/> <path d="M5080 592 c0 -5 7 -15 15 -22 8 -7 15 -8 15 -2 0 5 -7 15 -15 22 -8 7 -15 8 -15 2z"/> <path d="M5480 589 c0 -5 5 -7 10 -4 6 3 10 8 10 11 0 2 -4 4 -10 4 -5 0 -10 -5 -10 -11z"/> <path d="M5608 585 c5 -11 20 -29 33 -40 22 -20 22 -20 11 0 -5 11 -20 29 -33 40 -22 20 -22 20 -11 0z"/> <path d="M5870 595 c0 -15 18 -40 24 -34 3 3 -1 14 -9 25 -8 10 -14 15 -15 9z"/> <path d="M3760 583 c0 -12 38 -48 45 -41 3 2 -6 15 -20 28 -14 13 -25 19 -25 13z"/> <path d="M4403 573 c4 -3 1 -13 -6 -22 -11 -14 -10 -14 5 -2 16 12 16 31 1 31 -4 0 -3 -3 0 -7z"/> <path d="M5215 570 c3 -5 8 -10 11 -10 2 0 4 5 4 10 0 6 -5 10 -11 10 -5 0 -7 -4 -4 -10z"/> <path d="M5500 570 c0 -5 5 -10 11 -10 5 0 7 5 4 10 -3 6 -8 10 -11 10 -2 0 -4 -4 -4 -10z"/> <path d="M1155 550 c10 -11 20 -18 23 -16 5 6 -23 36 -34 36 -4 0 1 -9 11 -20z"/> <path d="M1430 551 c0 -10 28 -41 36 -41 2 0 -3 11 -12 25 -17 26 -24 31 -24 16z"/> <path d="M2590 546 c0 -2 7 -7 16 -10 8 -3 12 -2 9 4 -6 10 -25 14 -25 6z"/> <path d="M3006 537 c3 -10 9 -15 12 -12 3 3 0 11 -7 18 -10 9 -11 8 -5 -6z"/> <path d="M4265 540 c3 -5 8 -10 11 -10 2 0 4 5 4 10 0 6 -5 10 -11 10 -5 0 -7 -4 -4 -10z"/> <path d="M5245 540 c3 -5 11 -10 16 -10 6 0 7 5 4 10 -3 6 -11 10 -16 10 -6 0 -7 -4 -4 -10z"/> <path d="M5527 539 c7 -7 15 -10 18 -7 3 3 -2 9 -12 12 -14 6 -15 5 -6 -5z"/> <path d="M5910 542 c0 -4 9 -15 20 -25 14 -11 20 -13 20 -4 0 7 -9 18 -20 25 -11 7 -20 9 -20 4z"/> <path d="M270 522 c6 -13 14 -21 18 -18 3 4 -2 14 -12 24 -18 16 -18 16 -6 -6z"/> <path d="M4331 524 c0 -11 3 -14 6 -6 3 7 2 16 -1 19 -3 4 -6 -2 -5 -13z"/> <path d="M5148 519 c53 -64 62 -73 62 -64 0 12 -62 85 -72 85 -4 0 0 -9 10 -21z"/> <path d="M401 515 c-1 -12 62 -85 72 -85 4 0 -2 10 -12 23 -11 12 -29 33 -40 47 -11 14 -20 21 -20 15z"/> <path d="M806 499 c12 -13 30 -34 40 -46 10 -13 22 -23 27 -23 4 0 -4 12 -18 27 -14 15 -25 31 -25 35 0 4 -10 13 -22 19 l-23 12 21 -24z"/> <path d="M1080 515 c0 -18 19 -40 26 -32 4 4 0 15 -9 24 -9 10 -17 13 -17 8z"/> <path d="M3050 490 c12 -16 24 -30 26 -30 3 0 -4 14 -16 30 -12 17 -24 30 -26 30 -3 0 4 -13 16 -30z"/> <path d="M4880 509 c0 -16 60 -79 74 -79 5 0 -2 10 -15 23 -14 12 -32 33 -42 47 -11 16 -17 19 -17 9z"/> <path d="M5561 503 c30 -38 49 -56 49 -47 -1 11 -46 64 -56 64 -3 0 0 -8 7 -17z"/> <path d="M5670 513 c0 -12 28 -38 34 -32 2 2 -5 13 -15 23 -11 11 -19 15 -19 9z"/> <path d="M1210 495 c7 -9 15 -13 17 -11 7 7 -7 26 -19 26 -6 0 -6 -6 2 -15z"/> <path d="M2533 485 c7 -14 18 -25 24 -25 8 0 4 10 -9 25 -27 31 -29 31 -15 0z"/> <path d="M5280 503 c1 -4 28 -37 62 -73 33 -36 56 -56 50 -45 -13 25 -112 130 -112 118z"/> <path d="M1470 490 c0 -5 5 -10 10 -10 6 0 10 5 10 10 0 6 -4 10 -10 10 -5 0 -10 -4 -10 -10z"/> <path d="M1953 473 c-10 -16 -25 -34 -33 -41 -13 -12 -13 -12 1 -5 23 11 73 73 60 73 -6 0 -18 -12 -28 -27z"/> <path d="M4316 475 c-9 -14 -12 -25 -7 -25 12 0 35 39 28 46 -2 3 -12 -7 -21 -21z"/> <path d="M4770 496 c0 -4 9 -16 20 -28 11 -12 20 -17 20 -11 0 5 -9 18 -20 28 -11 10 -20 15 -20 11z"/> <path d="M710 472 c6 -13 14 -21 18 -18 3 4 -2 14 -12 24 -18 16 -18 16 -6 -6z"/> <path d="M1115 460 c3 -5 11 -10 16 -10 6 0 7 5 4 10 -3 6 -11 10 -16 10 -6 0 -7 -4 -4 -10z"/> <path d="M1240 455 c7 -9 15 -13 17 -11 7 7 -7 26 -19 26 -6 0 -6 -6 2 -15z"/> <path d="M1490 466 c0 -2 7 -7 16 -10 8 -3 12 -2 9 4 -6 10 -25 14 -25 6z"/> <path d="M1651 448 c-6 -10 -9 -18 -6 -18 3 0 15 8 26 18 13 13 15 19 5 19 -7 0 -18 -9 -25 -19z"/> <path d="M3491 453 c34 -42 73 -83 80 -83 4 0 -8 17 -26 38 -19 20 -35 40 -35 43 0 4 -7 10 -16 13 -15 6 -15 4 -3 -11z"/> <path d="M3767 435 c20 -20 37 -34 39 -32 6 5 -54 67 -65 67 -5 0 7 -16 26 -35z"/> <path d="M5722 456 c7 -8 15 -12 17 -11 5 6 -10 25 -20 25 -5 0 -4 -6 3 -14z"/> <path d="M5982 456 c7 -8 15 -12 17 -11 5 6 -10 25 -20 25 -5 0 -4 -6 3 -14z"/> <path d="M66 441 c-8 -12 19 -40 39 -40 6 0 3 5 -6 12 -9 7 -18 19 -21 27 -3 11 -6 11 -12 1z"/> <path d="M340 440 c0 -5 5 -10 11 -10 5 0 7 5 4 10 -3 6 -8 10 -11 10 -2 0 -4 -4 -4 -10z"/> <path d="M740 440 c0 -5 5 -10 11 -10 5 0 7 5 4 10 -3 6 -8 10 -11 10 -2 0 -4 -4 -4 -10z"/> <path d="M2581 445 c0 -13 28 -50 33 -44 3 2 -4 15 -14 29 -11 14 -20 21 -19 15z"/> <path d="M4543 438 c-23 -30 -24 -41 -2 -21 12 12 20 25 17 28 -3 3 -10 0 -15 -7z"/> <path d="M4820 440 c0 -5 5 -10 11 -10 5 0 7 5 4 10 -3 6 -8 10 -11 10 -2 0 -4 -4 -4 -10z"/> <path d="M5220 441 c0 -5 5 -13 10 -16 6 -3 10 -2 10 4 0 5 -4 13 -10 16 -5 3 -10 2 -10 -4z"/> <path d="M5620 440 c0 -5 5 -10 11 -10 5 0 7 5 4 10 -3 6 -8 10 -11 10 -2 0 -4 -4 -4 -10z"/> <path d="M2990 433 c0 -6 9 -21 21 -34 12 -13 32 -37 45 -53 14 -16 27 -26 30 -24 2 3 -9 20 -26 38 -17 19 -40 45 -51 58 -10 14 -19 20 -19 15z"/> <path d="M370 412 c0 -5 10 -17 21 -28 22 -19 22 -19 10 3 -12 24 -31 39 -31 25z"/> <path d="M490 414 c0 -6 19 -30 42 -54 23 -25 39 -37 35 -27 -4 10 -7 21 -7 23 0 2 -7 4 -16 4 -8 0 -13 3 -11 8 2 4 -7 18 -20 31 -13 13 -23 20 -23 15z"/> <path d="M900 395 c13 -14 27 -25 31 -25 5 0 -2 11 -15 25 -13 14 -27 25 -31 25 -5 0 2 -11 15 -25z"/> <path d="M1170 410 c0 -5 5 -10 11 -10 5 0 7 5 4 10 -3 6 -8 10 -11 10 -2 0 -4 -4 -4 -10z"/> <path d="M1608 401 c-7 -11 -18 -17 -27 -13 -14 5 -14 4 -2 -11 8 -10 15 -16 15 -15 1 2 10 15 19 31 10 15 15 27 12 27 -3 0 -10 -9 -17 -19z"/> <path d="M2013 408 c-15 -20 -25 -38 -20 -38 3 0 12 11 21 25 17 26 16 35 -1 13z"/> <path d="M4850 410 c0 -5 5 -10 11 -10 5 0 7 5 4 10 -3 6 -8 10 -11 10 -2 0 -4 -4 -4 -10z"/> <path d="M4960 418 c0 -4 20 -28 44 -54 32 -34 43 -41 39 -26 -3 12 -10 22 -16 22 -6 0 -23 15 -38 33 -16 17 -28 29 -29 25z"/> <path d="M5650 410 c0 -5 5 -10 11 -10 5 0 7 5 4 10 -3 6 -8 10 -11 10 -2 0 -4 -4 -4 -10z"/> <path d="M26 391 c-10 -10 -14 -21 -9 -24 5 -3 13 6 20 19 13 29 11 30 -11 5z"/> <path d="M1310 386 c26 -36 63 -69 56 -51 -3 9 -6 19 -6 21 0 2 -5 4 -10 4 -6 0 -21 10 -33 23 -16 17 -18 17 -7 3z"/> <path d="M3446 383 c-6 -14 -5 -15 5 -6 7 7 10 15 7 18 -3 3 -9 -2 -12 -12z"/> <path d="M3815 380 c3 -5 11 -10 16 -10 6 0 7 5 4 10 -3 6 -11 10 -16 10 -6 0 -7 -4 -4 -10z"/> <path d="M4889 361 c25 -35 41 -47 41 -32 0 6 -4 11 -10 11 -5 0 -10 6 -10 13 0 7 -10 18 -21 26 l-22 13 22 -31z"/> <path d="M5272 376 c7 -8 15 -12 17 -11 5 6 -10 25 -20 25 -5 0 -4 -6 3 -14z"/> <path d="M5691 355 c35 -38 51 -40 25 -3 -9 12 -16 18 -16 13 0 -6 -5 -2 -11 8 -5 9 -14 17 -20 17 -5 0 5 -16 22 -35z"/> <path d="M5787 379 c7 -7 15 -10 18 -7 3 3 -2 9 -12 12 -14 6 -15 5 -6 -5z"/> <path d="M120 376 c0 -1 11 -15 25 -30 29 -31 34 -20 6 12 -16 20 -31 28 -31 18z"/> <path d="M821 354 c0 -11 3 -14 6 -6 3 7 2 16 -1 19 -3 4 -6 -2 -5 -13z"/> <path d="M1221 354 c0 -11 3 -14 6 -6 3 7 2 16 -1 19 -3 4 -6 -2 -5 -13z"/> <path d="M3456 363 c-3 -3 5 -16 19 -28 13 -13 22 -25 20 -27 -2 -2 5 -9 15 -16 11 -7 20 -8 20 -3 0 5 -3 11 -7 13 -5 2 -20 17 -34 35 -15 18 -29 29 -33 26z"/> <path d="M1956 345 c-11 -8 -17 -17 -14 -20 2 -3 13 4 23 15 21 23 18 25 -9 5z"/> <path d="M5300 352 c0 -5 7 -15 15 -22 8 -7 15 -9 15 -6 0 4 -7 14 -15 22 -8 9 -15 11 -15 6z"/> <path d="M5810 354 c0 -3 7 -12 15 -20 16 -17 18 -14 9 10 -6 15 -24 23 -24 10z"/> <path d="M5430 335 c0 -8 4 -15 10 -15 5 0 7 7 4 15 -4 8 -8 15 -10 15 -2 0 -4 -7 -4 -15z"/> <path d="M440 330 c0 -5 5 -10 10 -10 6 0 10 5 10 10 0 6 -4 10 -10 10 -5 0 -10 -4 -10 -10z"/> <path d="M3418 333 c7 -3 16 -2 19 1 4 3 -2 6 -13 5 -11 0 -14 -3 -6 -6z"/> <path d="M2807 319 c7 -7 15 -10 18 -7 3 3 -2 9 -12 12 -14 6 -15 5 -6 -5z"/> <path d="M66 298 c3 -4 9 -8 15 -8 5 0 9 4 9 8 0 5 -7 9 -15 9 -8 0 -12 -4 -9 -9z"/> <path d="M180 306 c0 -4 9 -16 20 -28 11 -12 20 -17 20 -11 0 5 -9 18 -20 28 -11 10 -20 15 -20 11z"/> <path d="M485 278 c17 -20 33 -37 38 -37 13 -2 -14 33 -41 54 -26 19 -26 18 3 -17z"/> <path d="M580 300 c8 -5 20 -10 25 -10 6 0 3 5 -5 10 -8 5 -19 10 -25 10 -5 0 -3 -5 5 -10z"/> <path d="M885 280 c17 -19 31 -37 33 -39 1 -2 5 -2 8 2 6 6 -18 33 -51 57 -11 8 -7 -1 10 -20z"/> <path d="M988 294 c13 -24 40 -49 47 -43 2 3 -10 18 -27 34 -23 22 -28 24 -20 9z"/> <path d="M1270 294 c7 -11 23 -27 37 -38 24 -18 24 -18 13 0 -7 11 -23 27 -37 38 -24 18 -24 18 -13 0z"/> <path d="M1397 280 c14 -16 31 -30 36 -30 12 0 -44 59 -56 60 -4 0 5 -13 20 -30z"/> <path d="M4951 289 c11 -11 23 -18 27 -15 3 4 -3 13 -14 21 -28 22 -37 18 -13 -6z"/> <path d="M5055 300 c3 -5 11 -10 16 -10 6 0 7 5 4 10 -3 6 -11 10 -16 10 -6 0 -7 -4 -4 -10z"/> <path d="M5348 292 c9 -10 19 -17 21 -16 6 5 -20 34 -30 34 -5 0 -1 -8 9 -18z"/> <path d="M5450 306 c0 -2 7 -7 16 -10 8 -3 12 -2 9 4 -6 10 -25 14 -25 6z"/> <path d="M5748 292 c9 -10 19 -17 21 -16 6 5 -20 34 -30 34 -5 0 -1 -8 9 -18z"/> <path d="M1915 289 c-4 -6 -5 -12 -2 -15 2 -3 7 2 10 11 7 17 1 20 -8 4z"/> <path d="M4026 283 c-6 -14 -5 -15 5 -6 7 7 10 15 7 18 -3 3 -9 -2 -12 -12z"/> <path d="M5870 286 c0 -2 8 -10 18 -17 15 -13 16 -12 3 4 -13 16 -21 21 -21 13z"/> <path d="M2840 270 c0 -5 5 -10 11 -10 5 0 7 5 4 10 -3 6 -8 10 -11 10 -2 0 -4 -4 -4 -10z"/> <path d="M3256 257 c3 -10 9 -15 12 -12 3 3 0 11 -7 18 -10 9 -11 8 -5 -6z"/> <path d="M5385 260 c-3 -5 -1 -10 4 -10 6 0 11 5 11 10 0 6 -2 10 -4 10 -3 0 -8 -4 -11 -10z"/> <path d="M5504 251 c10 -11 15 -25 11 -33 -6 -10 -5 -10 4 -2 14 13 5 40 -17 49 -13 5 -13 3 2 -14z"/> <path d="M5780 261 c0 -5 5 -13 10 -16 6 -3 10 -2 10 4 0 5 -4 13 -10 16 -5 3 -10 2 -10 -4z"/> <path d="M110 250 c0 -5 5 -10 11 -10 5 0 7 5 4 10 -3 6 -8 10 -11 10 -2 0 -4 -4 -4 -10z"/> <path d="M630 240 c0 -19 3 -21 12 -12 9 9 9 15 0 24 -9 9 -12 7 -12 -12z"/> <path d="M2872 240 c0 -14 2 -19 5 -12 2 6 2 18 0 25 -3 6 -5 1 -5 -13z"/> <path d="M3550 250 c0 -5 5 -10 10 -10 6 0 10 5 10 10 0 6 -4 10 -10 10 -5 0 -10 -4 -10 -10z"/> <path d="M4405 250 c-3 -6 1 -7 9 -4 18 7 21 14 7 14 -6 0 -13 -4 -16 -10z"/> <path d="M4990 255 c0 -5 5 -17 10 -25 5 -8 10 -10 10 -5 0 6 -5 17 -10 25 -5 8 -10 11 -10 5z"/> <path d="M5110 246 c0 -9 -4 -16 -10 -16 -5 0 -10 -4 -10 -10 0 -13 27 -1 34 15 3 8 1 17 -4 20 -6 4 -10 -1 -10 -9z"/> <path d="M3280 240 c0 -5 5 -10 11 -10 5 0 7 5 4 10 -3 6 -8 10 -11 10 -2 0 -4 -4 -4 -10z"/> <path d="M1052 224 c10 -10 20 -15 24 -12 3 4 -5 12 -18 18 -22 12 -22 12 -6 -6z"/> <path d="M1440 236 c0 -2 8 -10 18 -17 15 -13 16 -12 3 4 -13 16 -21 21 -21 13z"/> <path d="M2490 215 c22 -24 30 -29 30 -22 0 8 -38 47 -45 47 -5 0 2 -11 15 -25z"/> <path d="M130 226 c0 -2 7 -7 16 -10 8 -3 12 -2 9 4 -6 10 -25 14 -25 6z"/> <path d="M256 222 c6 -4 17 -18 23 -30 7 -13 15 -21 18 -19 7 8 -28 57 -41 57 -8 0 -8 -2 0 -8z"/> <path d="M550 210 c11 -11 20 -24 20 -30 0 -5 6 -10 13 -10 14 0 41 39 33 47 -3 3 -8 -2 -12 -11 -8 -22 -27 -20 -42 4 -7 11 -17 20 -22 20 -6 0 -1 -9 10 -20z"/> <path d="M957 200 c14 -17 28 -28 30 -26 5 5 -42 56 -51 56 -3 0 6 -14 21 -30z"/> <path d="M1356 221 c-3 -4 5 -21 19 -37 13 -15 22 -31 19 -36 -3 -4 0 -8 5 -8 16 0 13 10 -14 45 -13 18 -21 35 -18 39 4 3 4 6 0 6 -3 0 -8 -4 -11 -9z"/> <path d="M1730 224 c0 -3 14 -19 30 -36 17 -16 30 -34 30 -39 0 -6 5 -7 10 -4 16 10 12 21 -15 35 -13 7 -27 21 -31 32 -5 16 -24 26 -24 12z"/> <path d="M2781 220 c0 -16 22 -50 32 -50 11 0 47 34 47 44 0 5 -8 2 -18 -7 -25 -23 -37 -21 -50 6 -6 13 -11 16 -11 7z"/> <path d="M3985 220 c-3 -5 -1 -10 4 -10 6 0 11 5 11 10 0 6 -2 10 -4 10 -3 0 -8 -4 -11 -10z"/> <path d="M4076 205 c-9 -14 -13 -25 -8 -25 5 0 14 11 20 25 6 14 10 25 8 25 -2 0 -11 -11 -20 -25z"/> <path d="M5421 213 c7 -12 15 -20 18 -17 3 2 -3 12 -13 22 -17 16 -18 16 -5 -5z"/> <path d="M5856 173 c31 -32 60 -67 64 -78 6 -14 9 -15 9 -5 1 16 -108 140 -121 140 -5 0 17 -26 48 -57z"/> <path d="M5910 219 c0 -5 5 -7 10 -4 6 3 10 8 10 11 0 2 -4 4 -10 4 -5 0 -10 -5 -10 -11z"/> <path d="M3590 211 c0 -6 4 -13 10 -16 6 -3 7 1 4 9 -7 18 -14 21 -14 7z"/> <path d="M5030 214 c0 -19 27 -47 38 -40 17 10 15 29 -3 22 -8 -3 -19 2 -24 12 -6 9 -11 12 -11 6z"/> <path d="M1080 190 c0 -5 5 -10 11 -10 5 0 7 5 4 10 -3 6 -8 10 -11 10 -2 0 -4 -4 -4 -10z"/> <path d="M2400 196 c0 -4 7 -14 15 -22 8 -9 15 -11 15 -6 0 5 -7 15 -15 22 -8 7 -15 9 -15 6z"/> <path d="M3326 188 c12 -21 47 -58 55 -58 5 0 -3 12 -16 26 -14 15 -25 31 -25 35 0 5 -5 9 -11 9 -5 0 -7 -6 -3 -12z"/> <path d="M3727 194 c-8 -8 41 -64 56 -64 6 0 -1 10 -15 23 -14 13 -27 29 -29 36 -3 7 -8 9 -12 5z"/> <path d="M4648 193 c6 -2 12 -11 12 -19 0 -8 5 -14 10 -14 7 0 7 6 0 20 -6 11 -16 20 -23 19 -9 0 -9 -2 1 -6z"/> <path d="M5560 190 c0 -5 5 -10 11 -10 5 0 7 5 4 10 -3 6 -8 10 -11 10 -2 0 -4 -4 -4 -10z"/> <path d="M4013 179 c9 -5 17 -17 17 -26 0 -13 3 -14 12 -5 9 9 8 15 -8 27 -10 8 -23 14 -29 14 -5 0 -2 -4 8 -10z"/> <path d="M5458 174 c12 -22 40 -49 46 -43 2 2 -10 18 -26 34 -21 21 -27 24 -20 9z"/> <path d="M2127 174 c-10 -11 2 -24 17 -18 7 3 16 -2 19 -10 4 -9 11 -16 17 -16 5 0 0 11 -12 25 -22 26 -30 29 -41 19z"/> <path d="M3220 171 c0 -5 5 -13 10 -16 6 -3 10 -2 10 4 0 5 -4 13 -10 16 -5 3 -10 2 -10 -4z"/> <path d="M4370 177 c0 -7 120 -127 127 -127 4 0 -9 17 -29 38 -19 20 -46 49 -58 65 -20 23 -40 35 -40 24z"/> <path d="M310 163 c0 -12 28 -38 34 -32 2 2 -5 13 -15 23 -11 11 -19 15 -19 9z"/> <path d="M1513 151 c1 -11 4 -19 8 -18 4 1 19 -11 33 -28 14 -16 26 -25 26 -20 0 6 -16 27 -34 47 -27 29 -34 33 -33 19z"/> <path d="M2550 161 c0 -10 29 -36 34 -30 1 2 -6 12 -16 22 -10 9 -18 13 -18 8z"/> <path d="M4793 152 c0 -10 9 -19 18 -19 16 -2 17 0 1 18 -20 23 -21 23 -19 1z"/> <path d="M5590 161 c0 -10 29 -36 34 -30 1 2 -6 12 -16 22 -10 9 -18 13 -18 8z"/> <path d="M720 152 c0 -12 19 -26 26 -19 2 2 -2 10 -11 17 -9 8 -15 8 -15 2z"/> <path d="M1000 151 c0 -6 4 -13 10 -16 6 -3 7 1 4 9 -7 18 -14 21 -14 7z"/> <path d="M235 110 c51 -52 65 -52 18 0 -21 22 -42 40 -47 40 -6 0 8 -18 29 -40z"/> <path d="M1142 120 c12 -16 26 -30 32 -30 5 0 -3 14 -19 30 -16 17 -30 30 -32 30 -2 0 6 -13 19 -30z"/> <path d="M2443 138 c9 -7 23 -22 31 -33 9 -11 16 -15 16 -9 0 14 -38 54 -52 54 -7 0 -4 -6 5 -12z"/> <path d="M2956 142 c-3 -4 4 -9 15 -9 23 -2 25 3 4 10 -8 4 -16 3 -19 -1z"/> <path d="M4340 140 c-9 -6 -10 -10 -3 -10 6 0 15 5 18 10 8 12 4 12 -15 0z"/> <path d="M4698 130 c12 -11 22 -26 22 -32 0 -6 3 -9 6 -6 9 10 -14 45 -33 52 -14 6 -13 2 5 -14z"/> <path d="M5170 115 c-28 -29 -31 -37 -20 -50 7 -8 18 -15 24 -15 6 0 3 6 -6 13 -15 12 -15 16 9 43 13 16 31 28 39 26 18 -4 18 4 0 11 -7 3 -28 -10 -46 -28z"/> <path d="M1428 123 c12 -22 30 -38 37 -31 2 2 -8 14 -22 28 -24 23 -25 23 -15 3z"/> <path d="M3262 120 c7 -11 17 -20 22 -20 5 0 1 9 -9 20 -10 11 -20 20 -22 20 -2 0 2 -9 9 -20z"/> <path d="M2082 110 c0 -14 2 -19 5 -12 2 6 2 18 0 25 -3 6 -5 1 -5 -13z"/> <path d="M350 115 c0 -3 16 -21 35 -41 42 -42 46 -32 5 14 -28 30 -40 38 -40 27z"/> <path d="M761 103 c36 -44 44 -53 52 -53 11 0 -45 68 -57 69 -5 1 -2 -7 5 -16z"/> <path d="M1036 107 c3 -10 9 -15 12 -12 3 3 0 11 -7 18 -10 9 -11 8 -5 -6z"/> <path d="M2185 110 c3 -5 8 -10 11 -10 2 0 4 5 4 10 0 6 -5 10 -11 10 -5 0 -7 -4 -4 -10z"/> <path d="M2930 109 c0 -5 5 -7 10 -4 6 3 10 8 10 11 0 2 -4 4 -10 4 -5 0 -10 -5 -10 -11z"/> <path d="M3390 114 c0 -7 27 -34 34 -34 4 0 1 9 -6 20 -12 19 -28 27 -28 14z"/> <path d="M3806 95 c9 -14 26 -31 38 -37 16 -9 15 -5 -6 17 -16 15 -28 32 -28 36 0 5 -5 9 -10 9 -6 0 -3 -11 6 -25z"/> <path d="M4320 112 c0 -5 7 -15 15 -22 8 -7 15 -8 15 -2 0 5 -7 15 -15 22 -8 7 -15 8 -15 2z"/> <path d="M4830 116 c0 -4 16 -24 35 -44 19 -20 35 -32 35 -26 0 5 -16 25 -35 44 -19 19 -35 30 -35 26z"/> <path d="M5225 110 c3 -5 8 -10 11 -10 2 0 4 5 4 10 0 6 -5 10 -11 10 -5 0 -7 -4 -4 -10z"/> <path d="M5510 111 c0 -6 5 -13 10 -16 6 -3 10 1 10 9 0 9 -4 16 -10 16 -5 0 -10 -4 -10 -9z"/> <path d="M5630 113 c0 -10 59 -67 64 -62 2 2 -11 19 -30 37 -19 19 -34 30 -34 25z"/> <path d="M3680 100 c0 -5 4 -10 10 -10 5 0 19 -10 31 -22 l21 -23 -11 22 c-13 25 -51 50 -51 33z"/> <path d="M678 94 c-14 -13 -8 -29 20 -48 27 -19 27 -19 11 0 -10 10 -19 27 -20 37 -2 11 -7 15 -11 11z"/> <path d="M2610 96 c0 -4 7 -14 15 -22 8 -9 15 -11 15 -6 0 5 -7 15 -15 22 -8 7 -15 9 -15 6z"/> <path d="M5250 90 c0 -5 5 -10 11 -10 5 0 7 5 4 10 -3 6 -8 10 -11 10 -2 0 -4 -4 -4 -10z"/> <path d="M1912 69 c-16 -26 -15 -37 1 -15 13 18 15 17 41 -10 l27 -29 -18 32 c-22 41 -36 46 -51 22z"/> <path d="M2900 80 c0 -5 5 -10 10 -10 6 0 10 5 10 10 0 6 -4 10 -10 10 -5 0 -10 -4 -10 -10z"/> <path d="M3310 80 c0 -5 5 -10 11 -10 5 0 7 5 4 10 -3 6 -8 10 -11 10 -2 0 -4 -4 -4 -10z"/> <path d="M4156 74 c-4 -9 -4 -19 -1 -22 3 -3 5 0 5 8 0 10 3 10 16 -1 14 -12 16 -11 13 5 -5 25 -25 31 -33 10z"/> <path d="M0 71 c0 -6 4 -13 10 -16 6 -3 7 1 4 9 -7 18 -14 21 -14 7z"/> <path d="M1190 76 c0 -4 7 -14 15 -22 8 -9 15 -11 15 -6 0 5 -7 15 -15 22 -8 7 -15 9 -15 6z"/> <path d="M1470 71 c0 -5 7 -12 16 -15 14 -5 15 -4 4 9 -14 17 -20 19 -20 6z"/> <path d="M1590 71 c0 -5 7 -12 16 -15 14 -5 15 -4 4 9 -14 17 -20 19 -20 6z"/> <path d="M1086 56 c3 -8 13 -17 22 -21 13 -5 13 -2 -3 15 -21 24 -26 25 -19 6z"/> <path d="M3030 66 c0 -2 7 -7 16 -10 8 -3 12 -2 9 4 -6 10 -25 14 -25 6z"/> <path d="M3442 56 c7 -8 15 -12 17 -11 5 6 -10 25 -20 25 -5 0 -4 -6 3 -14z"/> <path d="M4350 66 c0 -2 7 -7 16 -10 8 -3 12 -2 9 4 -6 10 -25 14 -25 6z"/> <path d="M5555 60 c3 -5 11 -10 16 -10 6 0 7 5 4 10 -3 6 -11 10 -16 10 -6 0 -7 -4 -4 -10z"/> <path d="M290 56 c0 -2 8 -10 18 -17 15 -13 16 -12 3 4 -13 16 -21 21 -21 13z"/> <path d="M835 20 c10 -11 20 -20 23 -20 3 0 -3 9 -13 20 -10 11 -20 20 -23 20 -3 0 3 -9 13 -20z"/> <path d="M3060 31 c0 -10 29 -36 34 -30 1 2 -6 12 -16 22 -10 9 -18 13 -18 8z"/> <path d="M5185 30 c3 -5 8 -10 11 -10 2 0 4 5 4 10 0 6 -5 10 -11 10 -5 0 -7 -4 -4 -10z"/> <path d="M5710 20 c6 -11 16 -20 22 -20 6 0 3 9 -7 20 -23 25 -29 25 -15 0z"/> <path d="M3470 26 c0 -2 8 -10 18 -17 15 -13 16 -12 3 4 -13 16 -21 21 -21 13z"/> <path d="M1240 10 c0 -5 5 -10 11 -10 5 0 7 5 4 10 -3 6 -8 10 -11 10 -2 0 -4 -4 -4 -10z"/> <path d="M1640 10 c0 -5 5 -10 11 -10 5 0 7 5 4 10 -3 6 -8 10 -11 10 -2 0 -4 -4 -4 -10z"/> <path d="M2280 10 c0 -5 5 -10 11 -10 5 0 7 5 4 10 -3 6 -8 10 -11 10 -2 0 -4 -4 -4 -10z"/> <path d="M4920 10 c0 -5 5 -10 11 -10 5 0 7 5 4 10 -3 6 -8 10 -11 10 -2 0 -4 -4 -4 -10z"/> </g> </svg> 